Hubballi-Regular-Glyphs copy 2.ufo
<glyph name="two" format="1">
  <advance width="508"/>
  <unicode hex="0032"/>
  <outline>
    <contour>
      <point x="76" y="0" type="curve" smooth="yes"/>
      <point x="428" y="0" type="line" smooth="yes"/>
      <point x="442" y="0"/>
      <point x="453" y="11"/>
      <point x="453" y="25" type="curve" smooth="yes"/>
      <point x="453" y="38"/>
      <point x="442" y="50"/>
      <point x="428" y="50" type="curve" smooth="yes"/>
      <point x="138" y="50" type="line"/>
      <point x="269" y="175" type="line" smooth="yes"/>
      <point x="388" y="288"/>
      <point x="420" y="339"/>
      <point x="420" y="405" type="curve" smooth="yes"/>
      <point x="420" y="474"/>
      <point x="370" y="544"/>
      <point x="258" y="544" type="curve" smooth="yes"/>
      <point x="201" y="544"/>
      <point x="145" y="528"/>
      <point x="94" y="496" type="curve" smooth="yes"/>
      <point x="86" y="491"/>
      <point x="82" y="483"/>
      <point x="82" y="475" type="curve" smooth="yes"/>
      <point x="82" y="459"/>
      <point x="95" y="450"/>
      <point x="107" y="450" type="curve" smooth="yes"/>
      <point x="112" y="450"/>
      <point x="116" y="452"/>
      <point x="120" y="454" type="curve" smooth="yes"/>
      <point x="163" y="480"/>
      <point x="211" y="494"/>
      <point x="258" y="494" type="curve" smooth="yes"/>
      <point x="330" y="494"/>
      <point x="370" y="452"/>
      <point x="370" y="405" type="curve" smooth="yes"/>
      <point x="370" y="347"/>
      <point x="334" y="306"/>
      <point x="235" y="211" type="curve" smooth="yes"/>
      <point x="235" y="211"/>
      <point x="58" y="42"/>
      <point x="58" y="42" type="curve" smooth="yes"/>
      <point x="54" y="37"/>
      <point x="51" y="32"/>
      <point x="51" y="25" type="curve" smooth="yes"/>
      <point x="51" y="12"/>
      <point x="63" y="0"/>
    </contour>
  </outline>
</glyph>
<glyph name="equal" format="1">
  <advance width="530"/>
  <unicode hex="003D"/>
  <outline>
    <contour>
      <point x="96" y="384" type="line" smooth="yes"/>
      <point x="83" y="384"/>
      <point x="71" y="373"/>
      <point x="71" y="359" type="curve" smooth="yes"/>
      <point x="71" y="346"/>
      <point x="83" y="334"/>
      <point x="96" y="334" type="curve" smooth="yes"/>
      <point x="433" y="334" type="line" smooth="yes"/>
      <point x="447" y="334"/>
      <point x="458" y="346"/>
      <point x="458" y="359" type="curve" smooth="yes"/>
      <point x="458" y="373"/>
      <point x="447" y="384"/>
      <point x="433" y="384" type="curve" smooth="yes"/>
    </contour>
    <contour>
      <point x="96" y="186" type="line" smooth="yes"/>
      <point x="83" y="186"/>
      <point x="71" y="175"/>
      <point x="71" y="161" type="curve" smooth="yes"/>
      <point x="71" y="148"/>
      <point x="83" y="136"/>
      <point x="96" y="136" type="curve" smooth="yes"/>
      <point x="433" y="136" type="line" smooth="yes"/>
      <point x="447" y="136"/>
      <point x="458" y="148"/>
      <point x="458" y="161" type="curve" smooth="yes"/>
      <point x="458" y="175"/>
      <point x="447" y="186"/>
      <point x="433" y="186" type="curve" smooth="yes"/>
    </contour>
  </outline>
</glyph>
<glyph name="W" format="1">
  <advance width="897"/>
  <unicode hex="0057"/>
  <outline>
    <contour>
      <point x="633" y="-10" type="curve" smooth="yes"/>
      <point x="643" y="-10"/>
      <point x="653" y="-4"/>
      <point x="657" y="5" type="curve" smooth="yes"/>
      <point x="694" y="89"/>
      <point x="789" y="359"/>
      <point x="827" y="488" type="curve" smooth="yes"/>
      <point x="830" y="498"/>
      <point x="832" y="506"/>
      <point x="832" y="509" type="curve" smooth="yes"/>
      <point x="832" y="522"/>
      <point x="819" y="534"/>
      <point x="807" y="534" type="curve" smooth="yes"/>
      <point x="796" y="534"/>
      <point x="786" y="527"/>
      <point x="783" y="516" type="curve" smooth="yes"/>
      <point x="748" y="396"/>
      <point x="676" y="189"/>
      <point x="632" y="77" type="curve"/>
      <point x="588" y="184"/>
      <point x="511" y="393"/>
      <point x="477" y="501" type="curve" smooth="yes"/>
      <point x="470" y="522"/>
      <point x="462" y="531"/>
      <point x="449" y="531" type="curve" smooth="yes"/>
      <point x="438" y="531"/>
      <point x="428" y="524"/>
      <point x="425" y="513" type="curve" smooth="yes"/>
      <point x="389" y="395"/>
      <point x="310" y="191"/>
      <point x="263" y="79" type="curve"/>
      <point x="220" y="188"/>
      <point x="143" y="411"/>
      <point x="115" y="516" type="curve" smooth="yes"/>
      <point x="112" y="527"/>
      <point x="102" y="534"/>
      <point x="91" y="534" type="curve" smooth="yes"/>
      <point x="77" y="534"/>
      <point x="66" y="522"/>
      <point x="66" y="509" type="curve" smooth="yes"/>
      <point x="66" y="505"/>
      <point x="68" y="497"/>
      <point x="76" y="469" type="curve" smooth="yes"/>
      <point x="103" y="376"/>
      <point x="202" y="86"/>
      <point x="237" y="11" type="curve" smooth="yes"/>
      <point x="241" y="2"/>
      <point x="250" y="-9"/>
      <point x="263" y="-9" type="curve" smooth="yes"/>
      <point x="273" y="-9"/>
      <point x="283" y="-3"/>
      <point x="287" y="6" type="curve" smooth="yes"/>
      <point x="319" y="77"/>
      <point x="399" y="279"/>
      <point x="449" y="425" type="curve"/>
      <point x="495" y="288"/>
      <point x="575" y="75"/>
      <point x="608" y="10" type="curve" smooth="yes"/>
      <point x="615" y="-5"/>
      <point x="625" y="-10"/>
    </contour>
  </outline>
</glyph>
<glyph name="bar" format="1">
  <advance width="300"/>
  <unicode hex="007C"/>
  <outline>
    <contour>
      <point x="175" y="606" type="line" smooth="yes"/>
      <point x="175" y="620"/>
      <point x="164" y="631"/>
      <point x="150" y="631" type="curve" smooth="yes"/>
      <point x="137" y="631"/>
      <point x="125" y="620"/>
      <point x="125" y="606" type="curve" smooth="yes"/>
      <point x="125" y="-76" type="line" smooth="yes"/>
      <point x="125" y="-90"/>
      <point x="137" y="-101"/>
      <point x="150" y="-101" type="curve" smooth="yes"/>
      <point x="164" y="-101"/>
      <point x="175" y="-90"/>
      <point x="175" y="-76" type="curve" smooth="yes"/>
    </contour>
  </outline>
</glyph>
<glyph name="threesuperior" format="1">
  <advance width="382"/>
  <unicode hex="00B3"/>
  <outline>
    <contour>
      <point x="189" y="227" type="curve" smooth="yes"/>
      <point x="276" y="227"/>
      <point x="311" y="271"/>
      <point x="311" y="321" type="curve" smooth="yes"/>
      <point x="311" y="372"/>
      <point x="274" y="411"/>
      <point x="202" y="413" type="curve"/>
      <point x="292" y="491" type="line" smooth="yes"/>
      <point x="298" y="497"/>
      <point x="302" y="502"/>
      <point x="302" y="510" type="curve" smooth="yes"/>
      <point x="302" y="522"/>
      <point x="292" y="532"/>
      <point x="280" y="532" type="curve" smooth="yes"/>
      <point x="108" y="532" type="line" smooth="yes"/>
      <point x="96" y="532"/>
      <point x="86" y="522"/>
      <point x="86" y="510" type="curve" smooth="yes"/>
      <point x="86" y="498"/>
      <point x="96" y="488"/>
      <point x="108" y="488" type="curve"/>
      <point x="221" y="488" type="line"/>
      <point x="119" y="399" type="line" smooth="yes"/>
      <point x="114" y="394"/>
      <point x="112" y="389"/>
      <point x="112" y="383" type="curve" smooth="yes"/>
      <point x="112" y="372"/>
      <point x="121" y="362"/>
      <point x="132" y="362" type="curve" smooth="yes"/>
      <point x="146" y="362"/>
      <point x="152" y="369"/>
      <point x="196" y="369" type="curve" smooth="yes"/>
      <point x="236" y="369"/>
      <point x="267" y="353"/>
      <point x="267" y="321" type="curve" smooth="yes"/>
      <point x="267" y="289"/>
      <point x="236" y="271"/>
      <point x="189" y="271" type="curve" smooth="yes"/>
      <point x="156" y="271"/>
      <point x="128" y="277"/>
      <point x="113" y="283" type="curve" smooth="yes"/>
      <point x="105" y="286"/>
      <point x="102" y="287"/>
      <point x="99" y="287" type="curve" smooth="yes"/>
      <point x="85" y="287"/>
      <point x="76" y="277"/>
      <point x="76" y="266" type="curve" smooth="yes"/>
      <point x="76" y="257"/>
      <point x="81" y="247"/>
      <point x="90" y="244" type="curve" smooth="yes"/>
      <point x="116" y="234"/>
      <point x="150" y="227"/>
    </contour>
  </outline>
</glyph>
<glyph name="onehalf" format="1">
  <advance width="780"/>
  <unicode hex="00BD"/>
  <outline>
    <contour>
      <point x="511" y="499" type="line"/>
      <point x="513" y="502"/>
      <point x="514" y="506"/>
      <point x="514" y="509" type="curve" smooth="yes"/>
      <point x="514" y="522"/>
      <point x="503" y="532"/>
      <point x="493" y="532" type="curve" smooth="yes"/>
      <point x="485" y="532"/>
      <point x="477" y="528"/>
      <point x="473" y="521" type="curve" smooth="yes"/>
      <point x="190" y="36" type="line"/>
      <point x="188" y="33"/>
      <point x="187" y="29"/>
      <point x="187" y="26" type="curve" smooth="yes"/>
      <point x="187" y="14"/>
      <point x="197" y="3"/>
      <point x="208" y="3" type="curve" smooth="yes"/>
      <point x="216" y="3"/>
      <point x="224" y="7"/>
      <point x="228" y="14" type="curve" smooth="yes"/>
    </contour>
    <contour>
      <point x="466" y="3" type="curve" smooth="yes"/>
      <point x="655" y="3" type="line" smooth="yes"/>
      <point x="667" y="3"/>
      <point x="677" y="13"/>
      <point x="677" y="25" type="curve" smooth="yes"/>
      <point x="677" y="37"/>
      <point x="667" y="47"/>
      <point x="655" y="47" type="curve" smooth="yes"/>
      <point x="521" y="47" type="line"/>
      <point x="575" y="97" type="line" smooth="yes"/>
      <point x="642" y="160"/>
      <point x="658" y="185"/>
      <point x="658" y="222" type="curve" smooth="yes"/>
      <point x="658" y="261"/>
      <point x="631" y="303"/>
      <point x="561" y="303" type="curve" smooth="yes"/>
      <point x="528" y="303"/>
      <point x="501" y="294"/>
      <point x="472" y="276" type="curve" smooth="yes"/>
      <point x="465" y="271"/>
      <point x="462" y="264"/>
      <point x="462" y="256" type="curve" smooth="yes"/>
      <point x="462" y="243"/>
      <point x="473" y="235"/>
      <point x="485" y="235" type="curve" smooth="yes"/>
      <point x="489" y="235"/>
      <point x="493" y="236"/>
      <point x="496" y="238" type="curve" smooth="yes"/>
      <point x="517" y="252"/>
      <point x="536" y="259"/>
      <point x="561" y="259" type="curve" smooth="yes"/>
      <point x="593" y="259"/>
      <point x="614" y="243"/>
      <point x="614" y="222" type="curve" smooth="yes"/>
      <point x="614" y="193"/>
      <point x="594" y="176"/>
      <point x="545" y="129" type="curve" smooth="yes"/>
      <point x="456" y="46" type="line" smooth="yes"/>
      <point x="448" y="39"/>
      <point x="444" y="34"/>
      <point x="444" y="25" type="curve" smooth="yes"/>
      <point x="444" y="13"/>
      <point x="454" y="3"/>
    </contour>
    <contour>
      <point x="202" y="237" type="curve" smooth="yes"/>
      <point x="214" y="237"/>
      <point x="224" y="247"/>
      <point x="224" y="259" type="curve" smooth="yes"/>
      <point x="224" y="520" type="line" smooth="yes"/>
      <point x="224" y="530"/>
      <point x="213" y="542"/>
      <point x="202" y="542" type="curve" smooth="yes"/>
      <point x="199" y="542"/>
      <point x="195" y="541"/>
      <point x="192" y="539" type="curve" smooth="yes"/>
      <point x="110" y="495" type="line" smooth="yes"/>
      <point x="102" y="491"/>
      <point x="98" y="484"/>
      <point x="98" y="476" type="curve" smooth="yes"/>
      <point x="98" y="466"/>
      <point x="109" y="454"/>
      <point x="120" y="454" type="curve" smooth="yes"/>
      <point x="123" y="454"/>
      <point x="127" y="455"/>
      <point x="130" y="457" type="curve" smooth="yes"/>
      <point x="180" y="484" type="line"/>
      <point x="180" y="259" type="line" smooth="yes"/>
      <point x="180" y="247"/>
      <point x="190" y="237"/>
    </contour>
  </outline>
</glyph>
<glyph name="Idieresis" format="1">
  <advance width="256"/>
  <unicode hex="00CF"/>
  <outline>
    <contour>
      <point x="228" y="730" type="curve" smooth="yes"/>
      <point x="208" y="730"/>
      <point x="189" y="712"/>
      <point x="189" y="682" type="curve" smooth="yes"/>
      <point x="189" y="650"/>
      <point x="208" y="634"/>
      <point x="228" y="634" type="curve" smooth="yes"/>
      <point x="246" y="634"/>
      <point x="266" y="649"/>
      <point x="266" y="682" type="curve" smooth="yes"/>
      <point x="266" y="713"/>
      <point x="246" y="730"/>
    </contour>
    <contour>
      <point x="35" y="730" type="curve" smooth="yes"/>
      <point x="15" y="730"/>
      <point x="-5" y="711"/>
      <point x="-5" y="682" type="curve" smooth="yes"/>
      <point x="-5" y="651"/>
      <point x="15" y="634"/>
      <point x="35" y="634" type="curve" smooth="yes"/>
      <point x="53" y="634"/>
      <point x="73" y="649"/>
      <point x="73" y="682" type="curve" smooth="yes"/>
      <point x="73" y="713"/>
      <point x="53" y="730"/>
    </contour>
    <contour>
      <point x="153" y="510" type="line" smooth="yes"/>
      <point x="153" y="524"/>
      <point x="142" y="535"/>
      <point x="128" y="535" type="curve" smooth="yes"/>
      <point x="115" y="535"/>
      <point x="103" y="524"/>
      <point x="103" y="510" type="curve" smooth="yes"/>
      <point x="103" y="25" type="line" smooth="yes"/>
      <point x="103" y="12"/>
      <point x="115" y="0"/>
      <point x="128" y="0" type="curve" smooth="yes"/>
      <point x="142" y="0"/>
      <point x="153" y="11"/>
      <point x="153" y="25" type="curve" smooth="yes"/>
    </contour>
  </outline>
</glyph>
<glyph name="Uacute" format="1">
  <advance width="616"/>
  <unicode hex="00DA"/>
  <outline>
    <contour>
      <point x="136" y="510" type="line" smooth="yes"/>
      <point x="136" y="524"/>
      <point x="125" y="535"/>
      <point x="111" y="535" type="curve" smooth="yes"/>
      <point x="98" y="535"/>
      <point x="86" y="524"/>
      <point x="86" y="510" type="curve" smooth="yes"/>
      <point x="86" y="214" type="line" smooth="yes"/>
      <point x="86" y="71"/>
      <point x="176" y="-9"/>
      <point x="306" y="-9" type="curve" smooth="yes"/>
      <point x="449" y="-9"/>
      <point x="530" y="71"/>
      <point x="530" y="217" type="curve" smooth="yes"/>
      <point x="530" y="510" type="line" smooth="yes"/>
      <point x="530" y="524"/>
      <point x="519" y="535"/>
      <point x="505" y="535" type="curve" smooth="yes"/>
      <point x="492" y="535"/>
      <point x="480" y="524"/>
      <point x="480" y="510" type="curve" smooth="yes"/>
      <point x="480" y="217" type="line" smooth="yes"/>
      <point x="480" y="103"/>
      <point x="417" y="41"/>
      <point x="306" y="41" type="curve" smooth="yes"/>
      <point x="206" y="41"/>
      <point x="136" y="103"/>
      <point x="136" y="214" type="curve" smooth="yes"/>
    </contour>
    <contour>
      <point x="439" y="678" type="curve" smooth="yes"/>
      <point x="446" y="682"/>
      <point x="450" y="690"/>
      <point x="450" y="698" type="curve" smooth="yes"/>
      <point x="450" y="708"/>
      <point x="441" y="719"/>
      <point x="427" y="719" type="curve" smooth="yes"/>
      <point x="424" y="719"/>
      <point x="420" y="718"/>
      <point x="417" y="716" type="curve" smooth="yes"/>
      <point x="370" y="689"/>
      <point x="322" y="657"/>
      <point x="292" y="636" type="curve" smooth="yes"/>
      <point x="286" y="632"/>
      <point x="283" y="625"/>
      <point x="283" y="618" type="curve" smooth="yes"/>
      <point x="283" y="606"/>
      <point x="292" y="596"/>
      <point x="305" y="596" type="curve" smooth="yes"/>
      <point x="309" y="596"/>
      <point x="314" y="597"/>
      <point x="318" y="600" type="curve" smooth="yes"/>
      <point x="346" y="621"/>
      <point x="394" y="651"/>
    </contour>
  </outline>
</glyph>
<glyph name="Udieresis" format="1">
  <advance width="616"/>
  <unicode hex="00DC"/>
  <outline>
    <contour>
      <point x="403" y="700" type="curve" smooth="yes"/>
      <point x="383" y="700"/>
      <point x="364" y="682"/>
      <point x="364" y="652" type="curve" smooth="yes"/>
      <point x="364" y="620"/>
      <point x="383" y="604"/>
      <point x="403" y="604" type="curve" smooth="yes"/>
      <point x="421" y="604"/>
      <point x="441" y="619"/>
      <point x="441" y="652" type="curve" smooth="yes"/>
      <point x="441" y="683"/>
      <point x="421" y="700"/>
    </contour>
    <contour>
      <point x="210" y="700" type="curve" smooth="yes"/>
      <point x="190" y="700"/>
      <point x="170" y="681"/>
      <point x="170" y="652" type="curve" smooth="yes"/>
      <point x="170" y="621"/>
      <point x="190" y="604"/>
      <point x="210" y="604" type="curve" smooth="yes"/>
      <point x="228" y="604"/>
      <point x="248" y="619"/>
      <point x="248" y="652" type="curve" smooth="yes"/>
      <point x="248" y="683"/>
      <point x="228" y="700"/>
    </contour>
    <contour>
      <point x="136" y="510" type="line" smooth="yes"/>
      <point x="136" y="524"/>
      <point x="125" y="535"/>
      <point x="111" y="535" type="curve" smooth="yes"/>
      <point x="98" y="535"/>
      <point x="86" y="524"/>
      <point x="86" y="510" type="curve" smooth="yes"/>
      <point x="86" y="214" type="line" smooth="yes"/>
      <point x="86" y="71"/>
      <point x="176" y="-9"/>
      <point x="306" y="-9" type="curve" smooth="yes"/>
      <point x="449" y="-9"/>
      <point x="530" y="71"/>
      <point x="530" y="217" type="curve" smooth="yes"/>
      <point x="530" y="510" type="line" smooth="yes"/>
      <point x="530" y="524"/>
      <point x="519" y="535"/>
      <point x="505" y="535" type="curve" smooth="yes"/>
      <point x="492" y="535"/>
      <point x="480" y="524"/>
      <point x="480" y="510" type="curve" smooth="yes"/>
      <point x="480" y="217" type="line" smooth="yes"/>
      <point x="480" y="103"/>
      <point x="417" y="41"/>
      <point x="306" y="41" type="curve" smooth="yes"/>
      <point x="206" y="41"/>
      <point x="136" y="103"/>
      <point x="136" y="214" type="curve" smooth="yes"/>
    </contour>
  </outline>
</glyph>
<glyph name="Yacute" format="1">
  <advance width="560"/>
  <unicode hex="00DD"/>
  <outline>
    <contour>
      <point x="417" y="678" type="curve" smooth="yes"/>
      <point x="424" y="682"/>
      <point x="428" y="690"/>
      <point x="428" y="698" type="curve" smooth="yes"/>
      <point x="428" y="708"/>
      <point x="419" y="719"/>
      <point x="405" y="719" type="curve" smooth="yes"/>
      <point x="402" y="719"/>
      <point x="398" y="718"/>
      <point x="395" y="716" type="curve" smooth="yes"/>
      <point x="348" y="689"/>
      <point x="300" y="657"/>
      <point x="270" y="636" type="curve" smooth="yes"/>
      <point x="264" y="632"/>
      <point x="261" y="625"/>
      <point x="261" y="618" type="curve" smooth="yes"/>
      <point x="261" y="606"/>
      <point x="270" y="596"/>
      <point x="283" y="596" type="curve" smooth="yes"/>
      <point x="287" y="596"/>
      <point x="292" y="597"/>
      <point x="296" y="600" type="curve" smooth="yes"/>
      <point x="324" y="621"/>
      <point x="372" y="651"/>
    </contour>
    <contour>
      <point x="282" y="0" type="curve" smooth="yes"/>
      <point x="296" y="0"/>
      <point x="307" y="11"/>
      <point x="307" y="25" type="curve" smooth="yes"/>
      <point x="307" y="191" type="line"/>
      <point x="358" y="262"/>
      <point x="467" y="430"/>
      <point x="507" y="497" type="curve" smooth="yes"/>
      <point x="509" y="501"/>
      <point x="510" y="506"/>
      <point x="510" y="510" type="curve" smooth="yes"/>
      <point x="510" y="524"/>
      <point x="501" y="534"/>
      <point x="486" y="534" type="curve" smooth="yes"/>
      <point x="477" y="534"/>
      <point x="469" y="530"/>
      <point x="465" y="523" type="curve" smooth="yes"/>
      <point x="429" y="462"/>
      <point x="338" y="320"/>
      <point x="283" y="242" type="curve"/>
      <point x="231" y="314"/>
      <point x="133" y="461"/>
      <point x="95" y="523" type="curve" smooth="yes"/>
      <point x="91" y="530"/>
      <point x="82" y="534"/>
      <point x="74" y="534" type="curve" smooth="yes"/>
      <point x="58" y="534"/>
      <point x="50" y="522"/>
      <point x="50" y="510" type="curve" smooth="yes"/>
      <point x="50" y="505"/>
      <point x="51" y="501"/>
      <point x="53" y="497" type="curve" smooth="yes"/>
      <point x="94" y="428"/>
      <point x="212" y="252"/>
      <point x="257" y="193" type="curve"/>
      <point x="257" y="25" type="line" smooth="yes"/>
      <point x="257" y="12"/>
      <point x="269" y="0"/>
    </contour>
  </outline>
</glyph>
<glyph name="ograve" format="1">
  <advance width="495"/>
  <unicode hex="00F2"/>
  <outline>
    <contour>
      <point x="247" y="396" type="curve" smooth="yes"/>
      <point x="124" y="396"/>
      <point x="48" y="304"/>
      <point x="48" y="193" type="curve" smooth="yes"/>
      <point x="48" y="82"/>
      <point x="126" y="-4"/>
      <point x="247" y="-4" type="curve" smooth="yes"/>
      <point x="369" y="-4"/>
      <point x="446" y="81"/>
      <point x="446" y="191" type="curve" smooth="yes"/>
      <point x="446" y="304"/>
      <point x="369" y="396"/>
    </contour>
    <contour>
      <point x="247" y="346" type="curve" smooth="yes"/>
      <point x="339" y="346"/>
      <point x="396" y="276"/>
      <point x="396" y="191" type="curve" smooth="yes"/>
      <point x="396" y="109"/>
      <point x="337" y="46"/>
      <point x="247" y="46" type="curve" smooth="yes"/>
      <point x="156" y="46"/>
      <point x="98" y="110"/>
      <point x="98" y="193" type="curve" smooth="yes"/>
      <point x="98" y="276"/>
      <point x="154" y="346"/>
    </contour>
    <contour>
      <point x="180" y="611" type="curve" smooth="yes"/>
      <point x="176" y="617"/>
      <point x="169" y="620"/>
      <point x="163" y="620" type="curve" smooth="yes"/>
      <point x="151" y="620"/>
      <point x="141" y="608"/>
      <point x="141" y="598" type="curve" smooth="yes"/>
      <point x="141" y="593"/>
      <point x="143" y="589"/>
      <point x="146" y="585" type="curve" smooth="yes"/>
      <point x="172" y="550"/>
      <point x="189" y="529"/>
      <point x="213" y="491" type="curve" smooth="yes"/>
      <point x="218" y="484"/>
      <point x="225" y="481"/>
      <point x="233" y="481" type="curve" smooth="yes"/>
      <point x="245" y="481"/>
      <point x="254" y="493"/>
      <point x="254" y="504" type="curve" smooth="yes"/>
      <point x="254" y="508"/>
      <point x="253" y="512"/>
      <point x="251" y="515" type="curve" smooth="yes"/>
      <point x="225" y="555"/>
      <point x="208" y="576"/>
    </contour>
  </outline>
</glyph>
<glyph name="Amacron" format="1">
  <advance width="580"/>
  <unicode hex="0100"/>
  <outline>
    <contour>
      <point x="397" y="664" type="line" smooth="yes"/>
      <point x="409" y="664"/>
      <point x="419" y="674"/>
      <point x="419" y="686" type="curve" smooth="yes"/>
      <point x="419" y="698"/>
      <point x="409" y="708"/>
      <point x="397" y="708" type="curve" smooth="yes"/>
      <point x="168" y="708" type="line" smooth="yes"/>
      <point x="156" y="708"/>
      <point x="146" y="698"/>
      <point x="146" y="686" type="curve" smooth="yes"/>
      <point x="146" y="674"/>
      <point x="156" y="664"/>
      <point x="168" y="664" type="curve" smooth="yes"/>
    </contour>
    <contour>
      <point x="505" y="0" type="curve" smooth="yes"/>
      <point x="518" y="0"/>
      <point x="530" y="12"/>
      <point x="530" y="25" type="curve" smooth="yes"/>
      <point x="530" y="28"/>
      <point x="529" y="33"/>
      <point x="519" y="57" type="curve" smooth="yes"/>
      <point x="480" y="156"/>
      <point x="382" y="375"/>
      <point x="310" y="530" type="curve" smooth="yes"/>
      <point x="306" y="539"/>
      <point x="296" y="544"/>
      <point x="286" y="544" type="curve" smooth="yes"/>
      <point x="282" y="544" type="line" smooth="yes"/>
      <point x="272" y="544"/>
      <point x="262" y="538"/>
      <point x="258" y="529" type="curve" smooth="yes"/>
      <point x="189" y="376"/>
      <point x="103" y="178"/>
      <point x="58" y="57" type="curve" smooth="yes"/>
      <point x="49" y="34"/>
      <point x="48" y="30"/>
      <point x="48" y="26" type="curve" smooth="yes"/>
      <point x="48" y="11"/>
      <point x="60" y="0"/>
      <point x="72" y="0" type="curve" smooth="yes"/>
      <point x="82" y="0"/>
      <point x="93" y="6"/>
      <point x="97" y="17" type="curve" smooth="yes"/>
      <point x="110" y="53"/>
      <point x="127" y="97"/>
      <point x="146" y="145" type="curve"/>
      <point x="428" y="145" type="line"/>
      <point x="449" y="97"/>
      <point x="468" y="52"/>
      <point x="482" y="16" type="curve" smooth="yes"/>
      <point x="486" y="6"/>
      <point x="495" y="0"/>
    </contour>
    <contour>
      <point x="407" y="195" type="curve"/>
      <point x="167" y="195" type="line"/>
      <point x="204" y="284"/>
      <point x="247" y="380"/>
      <point x="284" y="465" type="curve"/>
      <point x="324" y="381"/>
      <point x="368" y="284"/>
    </contour>
  </outline>
</glyph>
<glyph name="uni0136" format="1">
  <advance width="553"/>
  <unicode hex="0136"/>
  <outline>
    <contour>
      <point x="479" y="0" type="curve" smooth="yes"/>
      <point x="493" y="0"/>
      <point x="504" y="13"/>
      <point x="504" y="25" type="curve" smooth="yes"/>
      <point x="504" y="31"/>
      <point x="502" y="37"/>
      <point x="498" y="41" type="curve" smooth="yes"/>
      <point x="447" y="99"/>
      <point x="341" y="229"/>
      <point x="280" y="302" type="curve"/>
      <point x="348" y="365"/>
      <point x="425" y="438"/>
      <point x="477" y="493" type="curve"/>
      <point x="481" y="498"/>
      <point x="484" y="504"/>
      <point x="484" y="510" type="curve" smooth="yes"/>
      <point x="484" y="523"/>
      <point x="472" y="535"/>
      <point x="459" y="535" type="curve" smooth="yes"/>
      <point x="452" y="535"/>
      <point x="446" y="532"/>
      <point x="441" y="527" type="curve" smooth="yes"/>
      <point x="360" y="443"/>
      <point x="223" y="318"/>
      <point x="148" y="249" type="curve"/>
      <point x="148" y="510" type="line" smooth="yes"/>
      <point x="148" y="524"/>
      <point x="137" y="535"/>
      <point x="123" y="535" type="curve" smooth="yes"/>
      <point x="110" y="535"/>
      <point x="98" y="524"/>
      <point x="98" y="510" type="curve" smooth="yes"/>
      <point x="98" y="25" type="line" smooth="yes"/>
      <point x="98" y="12"/>
      <point x="110" y="0"/>
      <point x="123" y="0" type="curve" smooth="yes"/>
      <point x="137" y="0"/>
      <point x="148" y="11"/>
      <point x="148" y="25" type="curve" smooth="yes"/>
      <point x="148" y="182" type="line"/>
      <point x="168" y="201"/>
      <point x="203" y="232"/>
      <point x="243" y="269" type="curve"/>
      <point x="304" y="195"/>
      <point x="409" y="67"/>
      <point x="460" y="9" type="curve" smooth="yes"/>
      <point x="465" y="3"/>
      <point x="472" y="0"/>
    </contour>
    <contour>
      <point x="298" y="-71" type="curve" smooth="yes"/>
      <point x="295" y="-64"/>
      <point x="287" y="-60"/>
      <point x="279" y="-60" type="curve" smooth="yes"/>
      <point x="266" y="-60"/>
      <point x="257" y="-69"/>
      <point x="257" y="-82" type="curve" smooth="yes"/>
      <point x="257" y="-86"/>
      <point x="258" y="-89"/>
      <point x="260" y="-93" type="curve" smooth="yes"/>
      <point x="264" y="-100"/>
      <point x="266" y="-110"/>
      <point x="266" y="-119" type="curve" smooth="yes"/>
      <point x="266" y="-150"/>
      <point x="239" y="-176"/>
      <point x="202" y="-193" type="curve" smooth="yes"/>
      <point x="194" y="-197"/>
      <point x="189" y="-205"/>
      <point x="189" y="-213" type="curve" smooth="yes"/>
      <point x="189" y="-225"/>
      <point x="200" y="-235"/>
      <point x="211" y="-235" type="curve" smooth="yes"/>
      <point x="214" y="-235"/>
      <point x="217" y="-234"/>
      <point x="220" y="-233" type="curve" smooth="yes"/>
      <point x="277" y="-206"/>
      <point x="310" y="-164"/>
      <point x="310" y="-119" type="curve" smooth="yes"/>
      <point x="310" y="-102"/>
      <point x="306" y="-86"/>
    </contour>
  </outline>
</glyph>
<glyph name="Lcaron" format="1">
  <advance width="459"/>
  <unicode hex="013D"/>
  <outline>
    <contour>
      <point x="341" y="483" type="line" smooth="yes"/>
      <point x="343" y="497"/>
      <point x="346" y="519"/>
      <point x="346" y="523" type="curve" smooth="yes"/>
      <point x="346" y="535"/>
      <point x="337" y="548"/>
      <point x="321" y="548" type="curve" smooth="yes"/>
      <point x="309" y="548"/>
      <point x="298" y="541"/>
      <point x="296" y="527" type="curve" smooth="yes"/>
      <point x="279" y="409" type="line" smooth="yes"/>
      <point x="277" y="397"/>
      <point x="276" y="387"/>
      <point x="276" y="384" type="curve" smooth="yes"/>
      <point x="276" y="370"/>
      <point x="288" y="359"/>
      <point x="301" y="359" type="curve" smooth="yes"/>
      <point x="313" y="359"/>
      <point x="324" y="368"/>
      <point x="326" y="380" type="curve" smooth="yes"/>
    </contour>
    <contour>
      <point x="394" y="0" type="line" smooth="yes"/>
      <point x="408" y="0"/>
      <point x="419" y="12"/>
      <point x="419" y="25" type="curve" smooth="yes"/>
      <point x="419" y="39"/>
      <point x="408" y="50"/>
      <point x="394" y="50" type="curve" smooth="yes"/>
      <point x="148" y="50" type="line"/>
      <point x="148" y="510" type="line" smooth="yes"/>
      <point x="148" y="524"/>
      <point x="137" y="535"/>
      <point x="123" y="535" type="curve" smooth="yes"/>
      <point x="110" y="535"/>
      <point x="98" y="524"/>
      <point x="98" y="510" type="curve" smooth="yes"/>
      <point x="98" y="25" type="line" smooth="yes"/>
      <point x="98" y="12"/>
      <point x="110" y="0"/>
      <point x="123" y="0" type="curve" smooth="yes"/>
    </contour>
  </outline>
</glyph>
<glyph name="lslash" format="1">
  <advance width="244"/>
  <unicode hex="0142"/>
  <outline>
    <contour>
      <point x="122" y="0" type="curve" smooth="yes"/>
      <point x="136" y="0"/>
      <point x="147" y="11"/>
      <point x="147" y="25" type="curve" smooth="yes"/>
      <point x="147" y="286" type="line"/>
      <point x="216" y="336" type="line" smooth="yes"/>
      <point x="223" y="341"/>
      <point x="226" y="348"/>
      <point x="226" y="356" type="curve" smooth="yes"/>
      <point x="226" y="370"/>
      <point x="215" y="381"/>
      <point x="201" y="381" type="curve" smooth="yes"/>
      <point x="196" y="381"/>
      <point x="190" y="379"/>
      <point x="186" y="376" type="curve" smooth="yes"/>
      <point x="147" y="348" type="line"/>
      <point x="147" y="536" type="line" smooth="yes"/>
      <point x="147" y="550"/>
      <point x="136" y="561"/>
      <point x="122" y="561" type="curve" smooth="yes"/>
      <point x="109" y="561"/>
      <point x="97" y="550"/>
      <point x="97" y="536" type="curve" smooth="yes"/>
      <point x="97" y="312" type="line"/>
      <point x="30" y="264" type="line" smooth="yes"/>
      <point x="23" y="259"/>
      <point x="20" y="252"/>
      <point x="20" y="244" type="curve" smooth="yes"/>
      <point x="20" y="230"/>
      <point x="31" y="219"/>
      <point x="45" y="219" type="curve" smooth="yes"/>
      <point x="50" y="219"/>
      <point x="56" y="221"/>
      <point x="60" y="224" type="curve" smooth="yes"/>
      <point x="97" y="251" type="line"/>
      <point x="97" y="25" type="line" smooth="yes"/>
      <point x="97" y="12"/>
      <point x="109" y="0"/>
    </contour>
  </outline>
</glyph>
<glyph name="rcaron" format="1">
  <advance width="346"/>
  <unicode hex="0159"/>
  <outline>
    <contour>
      <point x="110" y="0" type="curve" smooth="yes"/>
      <point x="124" y="0"/>
      <point x="135" y="11"/>
      <point x="135" y="25" type="curve" smooth="yes"/>
      <point x="135" y="227" type="line"/>
      <point x="177" y="291"/>
      <point x="227" y="332"/>
      <point x="305" y="342" type="curve" smooth="yes"/>
      <point x="318" y="344"/>
      <point x="327" y="355"/>
      <point x="327" y="368" type="curve" smooth="yes"/>
      <point x="327" y="381"/>
      <point x="317" y="391"/>
      <point x="303" y="391" type="curve" smooth="yes"/>
      <point x="248" y="391"/>
      <point x="187" y="363"/>
      <point x="135" y="308" type="curve"/>
      <point x="135" y="367" type="line" smooth="yes"/>
      <point x="135" y="381"/>
      <point x="124" y="392"/>
      <point x="110" y="392" type="curve" smooth="yes"/>
      <point x="97" y="392"/>
      <point x="85" y="381"/>
      <point x="85" y="367" type="curve" smooth="yes"/>
      <point x="85" y="25" type="line" smooth="yes"/>
      <point x="85" y="12"/>
      <point x="97" y="0"/>
    </contour>
    <contour>
      <point x="193" y="481" type="line" smooth="yes"/>
      <point x="199" y="481"/>
      <point x="205" y="483"/>
      <point x="209" y="487" type="curve" smooth="yes"/>
      <point x="232" y="510"/>
      <point x="269" y="548"/>
      <point x="295" y="574" type="curve" smooth="yes"/>
      <point x="299" y="579"/>
      <point x="301" y="584"/>
      <point x="301" y="590" type="curve" smooth="yes"/>
      <point x="301" y="602"/>
      <point x="291" y="612"/>
      <point x="279" y="612" type="curve" smooth="yes"/>
      <point x="273" y="612"/>
      <point x="268" y="610"/>
      <point x="263" y="606" type="curve" smooth="yes"/>
      <point x="241" y="584"/>
      <point x="212" y="555"/>
      <point x="190" y="532" type="curve"/>
      <point x="167" y="555"/>
      <point x="139" y="584"/>
      <point x="117" y="606" type="curve" smooth="yes"/>
      <point x="113" y="610"/>
      <point x="107" y="612"/>
      <point x="101" y="612" type="curve" smooth="yes"/>
      <point x="90" y="612"/>
      <point x="79" y="603"/>
      <point x="79" y="590" type="curve" smooth="yes"/>
      <point x="79" y="584"/>
      <point x="81" y="579"/>
      <point x="85" y="574" type="curve" smooth="yes"/>
      <point x="111" y="548"/>
      <point x="147" y="511"/>
      <point x="171" y="487" type="curve" smooth="yes"/>
      <point x="176" y="483"/>
      <point x="181" y="481"/>
      <point x="187" y="481" type="curve" smooth="yes"/>
    </contour>
  </outline>
</glyph>
<glyph name="scaron" format="1">
  <advance width="450"/>
  <unicode hex="0161"/>
  <outline>
    <contour>
      <point x="315" y="334" type="curve" smooth="yes"/>
      <point x="326" y="331"/>
      <point x="332" y="330"/>
      <point x="336" y="330" type="curve" smooth="yes"/>
      <point x="349" y="330"/>
      <point x="361" y="340"/>
      <point x="361" y="355" type="curve" smooth="yes"/>
      <point x="361" y="366"/>
      <point x="354" y="376"/>
      <point x="343" y="379" type="curve" smooth="yes"/>
      <point x="312" y="387"/>
      <point x="272" y="395"/>
      <point x="227" y="395" type="curve" smooth="yes"/>
      <point x="106" y="395"/>
      <point x="74" y="335"/>
      <point x="74" y="286" type="curve" smooth="yes"/>
      <point x="74" y="242"/>
      <point x="98" y="194"/>
      <point x="217" y="182" type="curve" smooth="yes"/>
      <point x="257" y="178" type="line" smooth="yes"/>
      <point x="313" y="172"/>
      <point x="344" y="146"/>
      <point x="344" y="111" type="curve" smooth="yes"/>
      <point x="344" y="73"/>
      <point x="305" y="46"/>
      <point x="233" y="46" type="curve" smooth="yes"/>
      <point x="189" y="46"/>
      <point x="144" y="55"/>
      <point x="119" y="65" type="curve" smooth="yes"/>
      <point x="102" y="72"/>
      <point x="97" y="74"/>
      <point x="94" y="74" type="curve" smooth="yes"/>
      <point x="81" y="74"/>
      <point x="68" y="62"/>
      <point x="68" y="50" type="curve" smooth="yes"/>
      <point x="68" y="40"/>
      <point x="74" y="30"/>
      <point x="83" y="26" type="curve" smooth="yes"/>
      <point x="130" y="6"/>
      <point x="183" y="-4"/>
      <point x="233" y="-4" type="curve" smooth="yes"/>
      <point x="360" y="-4"/>
      <point x="394" y="57"/>
      <point x="394" y="111" type="curve" smooth="yes"/>
      <point x="394" y="164"/>
      <point x="361" y="218"/>
      <point x="261" y="228" type="curve" smooth="yes"/>
      <point x="221" y="232" type="line" smooth="yes"/>
      <point x="160" y="238"/>
      <point x="124" y="256"/>
      <point x="124" y="286" type="curve" smooth="yes"/>
      <point x="124" y="319"/>
      <point x="162" y="345"/>
      <point x="227" y="345" type="curve" smooth="yes"/>
      <point x="266" y="345"/>
      <point x="301" y="338"/>
    </contour>
    <contour>
      <point x="220" y="481" type="line" smooth="yes"/>
      <point x="226" y="481"/>
      <point x="232" y="483"/>
      <point x="236" y="487" type="curve" smooth="yes"/>
      <point x="259" y="510"/>
      <point x="296" y="548"/>
      <point x="322" y="574" type="curve" smooth="yes"/>
      <point x="326" y="579"/>
      <point x="328" y="584"/>
      <point x="328" y="590" type="curve" smooth="yes"/>
      <point x="328" y="602"/>
      <point x="318" y="612"/>
      <point x="306" y="612" type="curve" smooth="yes"/>
      <point x="300" y="612"/>
      <point x="295" y="610"/>
      <point x="290" y="606" type="curve" smooth="yes"/>
      <point x="268" y="584"/>
      <point x="239" y="555"/>
      <point x="217" y="532" type="curve"/>
      <point x="194" y="555"/>
      <point x="166" y="584"/>
      <point x="144" y="606" type="curve" smooth="yes"/>
      <point x="140" y="610"/>
      <point x="134" y="612"/>
      <point x="128" y="612" type="curve" smooth="yes"/>
      <point x="117" y="612"/>
      <point x="106" y="603"/>
      <point x="106" y="590" type="curve" smooth="yes"/>
      <point x="106" y="584"/>
      <point x="108" y="579"/>
      <point x="112" y="574" type="curve" smooth="yes"/>
      <point x="138" y="548"/>
      <point x="174" y="511"/>
      <point x="198" y="487" type="curve" smooth="yes"/>
      <point x="203" y="483"/>
      <point x="208" y="481"/>
      <point x="214" y="481" type="curve" smooth="yes"/>
    </contour>
  </outline>
</glyph>
<glyph name="Uring" format="1">
  <advance width="616"/>
  <unicode hex="016E"/>
  <outline>
    <contour>
      <point x="416" y="618" type="curve" smooth="yes"/>
      <point x="416" y="669"/>
      <point x="376" y="718"/>
      <point x="307" y="718" type="curve" smooth="yes"/>
      <point x="240" y="718"/>
      <point x="201" y="666"/>
      <point x="201" y="618" type="curve" smooth="yes"/>
      <point x="201" y="570"/>
      <point x="240" y="518"/>
      <point x="307" y="518" type="curve" smooth="yes"/>
      <point x="376" y="518"/>
      <point x="416" y="567"/>
    </contour>
    <contour>
      <point x="372" y="618" type="curve" smooth="yes"/>
      <point x="372" y="587"/>
      <point x="346" y="562"/>
      <point x="307" y="562" type="curve" smooth="yes"/>
      <point x="270" y="562"/>
      <point x="245" y="590"/>
      <point x="245" y="618" type="curve" smooth="yes"/>
      <point x="245" y="646"/>
      <point x="270" y="674"/>
      <point x="307" y="674" type="curve" smooth="yes"/>
      <point x="346" y="674"/>
      <point x="372" y="649"/>
    </contour>
    <contour>
      <point x="136" y="510" type="line" smooth="yes"/>
      <point x="136" y="524"/>
      <point x="125" y="535"/>
      <point x="111" y="535" type="curve" smooth="yes"/>
      <point x="98" y="535"/>
      <point x="86" y="524"/>
      <point x="86" y="510" type="curve" smooth="yes"/>
      <point x="86" y="214" type="line" smooth="yes"/>
      <point x="86" y="71"/>
      <point x="176" y="-9"/>
      <point x="306" y="-9" type="curve" smooth="yes"/>
      <point x="449" y="-9"/>
      <point x="530" y="71"/>
      <point x="530" y="217" type="curve" smooth="yes"/>
      <point x="530" y="510" type="line" smooth="yes"/>
      <point x="530" y="524"/>
      <point x="519" y="535"/>
      <point x="505" y="535" type="curve" smooth="yes"/>
      <point x="492" y="535"/>
      <point x="480" y="524"/>
      <point x="480" y="510" type="curve" smooth="yes"/>
      <point x="480" y="217" type="line" smooth="yes"/>
      <point x="480" y="103"/>
      <point x="417" y="41"/>
      <point x="306" y="41" type="curve" smooth="yes"/>
      <point x="206" y="41"/>
      <point x="136" y="103"/>
      <point x="136" y="214" type="curve" smooth="yes"/>
    </contour>
  </outline>
</glyph>
<glyph name="circumflex" format="1">
  <advance width="490"/>
  <unicode hex="02C6"/>
  <outline>
    <contour>
      <point x="334" y="486" type="curve" smooth="yes"/>
      <point x="347" y="486"/>
      <point x="356" y="496"/>
      <point x="356" y="508" type="curve" smooth="yes"/>
      <point x="356" y="514"/>
      <point x="354" y="520"/>
      <point x="350" y="524" type="curve" smooth="yes"/>
      <point x="323" y="550"/>
      <point x="292" y="581"/>
      <point x="261" y="611" type="curve" smooth="yes"/>
      <point x="257" y="615"/>
      <point x="252" y="617"/>
      <point x="246" y="617" type="curve" smooth="yes"/>
      <point x="240" y="617" type="line" smooth="yes"/>
      <point x="234" y="617"/>
      <point x="229" y="615"/>
      <point x="224" y="611" type="curve"/>
      <point x="194" y="581"/>
      <point x="162" y="550"/>
      <point x="136" y="524" type="curve" smooth="yes"/>
      <point x="132" y="520"/>
      <point x="130" y="514"/>
      <point x="130" y="508" type="curve" smooth="yes"/>
      <point x="130" y="496"/>
      <point x="140" y="486"/>
      <point x="152" y="486" type="curve" smooth="yes"/>
      <point x="158" y="486"/>
      <point x="164" y="488"/>
      <point x="168" y="492" type="curve" smooth="yes"/>
      <point x="190" y="514"/>
      <point x="217" y="541"/>
      <point x="244" y="567" type="curve"/>
      <point x="270" y="541"/>
      <point x="296" y="514"/>
      <point x="318" y="492" type="curve" smooth="yes"/>
      <point x="323" y="488"/>
      <point x="328" y="486"/>
    </contour>
  </outline>
</glyph>
<glyph name="uni02C9" format="1">
  <advance width="430"/>
  <unicode hex="02C9"/>
  <outline>
    <contour>
      <point x="289" y="521" type="line" smooth="yes"/>
      <point x="301" y="521"/>
      <point x="311" y="531"/>
      <point x="311" y="543" type="curve" smooth="yes"/>
      <point x="311" y="555"/>
      <point x="301" y="565"/>
      <point x="289" y="565" type="curve" smooth="yes"/>
      <point x="141" y="565" type="line" smooth="yes"/>
      <point x="129" y="565"/>
      <point x="119" y="555"/>
      <point x="119" y="543" type="curve" smooth="yes"/>
      <point x="119" y="531"/>
      <point x="129" y="521"/>
      <point x="141" y="521" type="curve" smooth="yes"/>
    </contour>
  </outline>
</glyph>
<glyph name="dotaccent" format="1">
  <advance width="490"/>
  <unicode hex="02D9"/>
  <outline>
    <contour>
      <point x="236" y="596" type="curve" smooth="yes"/>
      <point x="214" y="596"/>
      <point x="195" y="576"/>
      <point x="195" y="548" type="curve" smooth="yes"/>
      <point x="195" y="520"/>
      <point x="213" y="502"/>
      <point x="236" y="502" type="curve" smooth="yes"/>
      <point x="257" y="502"/>
      <point x="275" y="518"/>
      <point x="275" y="548" type="curve" smooth="yes"/>
      <point x="275" y="578"/>
      <point x="256" y="596"/>
    </contour>
  </outline>
</glyph>
<glyph name="knvR" format="1">
  <advance width="1071"/>
  <unicode hex="0C8B"/>
  <outline>
    <contour>
      <point x="193" y="311" type="curve" smooth="yes"/>
      <point x="161" y="311"/>
      <point x="134" y="334"/>
      <point x="134" y="365" type="curve" smooth="yes"/>
      <point x="134" y="395"/>
      <point x="161" y="424"/>
      <point x="208" y="424" type="curve" smooth="yes"/>
      <point x="225" y="424"/>
      <point x="241" y="422"/>
      <point x="256" y="419" type="curve"/>
      <point x="260" y="407"/>
      <point x="265" y="391"/>
      <point x="265" y="373" type="curve" smooth="yes"/>
      <point x="265" y="335"/>
      <point x="235" y="311"/>
    </contour>
    <contour>
      <point x="208" y="42" type="curve" smooth="yes"/>
      <point x="153" y="42"/>
      <point x="123" y="67"/>
      <point x="123" y="97" type="curve" smooth="yes"/>
      <point x="123" y="124"/>
      <point x="153" y="152"/>
      <point x="197" y="152" type="curve" smooth="yes"/>
      <point x="247" y="152"/>
      <point x="295" y="130"/>
      <point x="339" y="98" type="curve"/>
      <point x="307" y="65"/>
      <point x="263" y="42"/>
    </contour>
    <contour>
      <point x="556" y="0" type="curve" smooth="yes"/>
      <point x="611" y="0"/>
      <point x="660" y="25"/>
      <point x="686" y="77" type="curve"/>
      <point x="732" y="22"/>
      <point x="781" y="0"/>
      <point x="842" y="0" type="curve" smooth="yes"/>
      <point x="948" y="0"/>
      <point x="1004" y="69"/>
      <point x="1004" y="169" type="curve" smooth="yes"/>
      <point x="1004" y="255"/>
      <point x="956" y="357"/>
      <point x="892" y="427" type="curve" smooth="yes"/>
      <point x="888" y="432"/>
      <point x="882" y="435"/>
      <point x="875" y="435" type="curve" smooth="yes"/>
      <point x="863" y="435"/>
      <point x="852" y="425"/>
      <point x="852" y="412" type="curve" smooth="yes"/>
      <point x="852" y="407"/>
      <point x="854" y="401"/>
      <point x="858" y="397" type="curve" smooth="yes"/>
      <point x="914" y="335"/>
      <point x="958" y="245"/>
      <point x="958" y="169" type="curve" smooth="yes"/>
      <point x="958" y="97"/>
      <point x="920" y="46"/>
      <point x="842" y="46" type="curve" smooth="yes"/>
      <point x="785" y="46"/>
      <point x="743" y="72"/>
      <point x="703" y="131" type="curve"/>
      <point x="706" y="144"/>
      <point x="707" y="159"/>
      <point x="707" y="175" type="curve" smooth="yes"/>
      <point x="707" y="264"/>
      <point x="669" y="348"/>
      <point x="616" y="414" type="curve"/>
      <point x="673" y="423"/>
      <point x="709" y="452"/>
      <point x="739" y="499" type="curve" smooth="yes"/>
      <point x="741" y="503"/>
      <point x="742" y="507"/>
      <point x="742" y="511" type="curve" smooth="yes"/>
      <point x="742" y="524"/>
      <point x="733" y="534"/>
      <point x="719" y="534" type="curve" smooth="yes"/>
      <point x="711" y="534"/>
      <point x="704" y="530"/>
      <point x="699" y="523" type="curve" smooth="yes"/>
      <point x="671" y="478"/>
      <point x="634" y="456"/>
      <point x="571" y="456" type="curve" smooth="yes"/>
      <point x="489" y="456" type="line" smooth="yes"/>
      <point x="477" y="456"/>
      <point x="466" y="445"/>
      <point x="466" y="433" type="curve" smooth="yes"/>
      <point x="466" y="421"/>
      <point x="477" y="410"/>
      <point x="489" y="410" type="curve" smooth="yes"/>
      <point x="559" y="410" type="line"/>
      <point x="617" y="350"/>
      <point x="661" y="265"/>
      <point x="661" y="175" type="curve" smooth="yes"/>
      <point x="661" y="92"/>
      <point x="617" y="46"/>
      <point x="556" y="46" type="curve" smooth="yes"/>
      <point x="500" y="46"/>
      <point x="454" y="65"/>
      <point x="403" y="107" type="curve"/>
      <point x="428" y="148"/>
      <point x="442" y="195"/>
      <point x="442" y="238" type="curve" smooth="yes"/>
      <point x="442" y="366"/>
      <point x="347" y="470"/>
      <point x="208" y="470" type="curve" smooth="yes"/>
      <point x="123" y="470"/>
      <point x="88" y="413"/>
      <point x="88" y="365" type="curve" smooth="yes"/>
      <point x="88" y="310"/>
      <point x="133" y="265"/>
      <point x="193" y="265" type="curve" smooth="yes"/>
      <point x="267" y="265"/>
      <point x="311" y="311"/>
      <point x="311" y="373" type="curve" smooth="yes"/>
      <point x="311" y="381"/>
      <point x="310" y="389"/>
      <point x="309" y="397" type="curve"/>
      <point x="363" y="364"/>
      <point x="396" y="305"/>
      <point x="396" y="238" type="curve" smooth="yes"/>
      <point x="396" y="205"/>
      <point x="386" y="168"/>
      <point x="366" y="135" type="curve"/>
      <point x="314" y="173"/>
      <point x="256" y="198"/>
      <point x="197" y="198" type="curve" smooth="yes"/>
      <point x="115" y="198"/>
      <point x="77" y="140"/>
      <point x="77" y="97" type="curve" smooth="yes"/>
      <point x="77" y="51"/>
      <point x="107" y="-4"/>
      <point x="208" y="-4" type="curve" smooth="yes"/>
      <point x="278" y="-4"/>
      <point x="335" y="26"/>
      <point x="374" y="70" type="curve"/>
      <point x="435" y="21"/>
      <point x="491" y="0"/>
    </contour>
  </outline>
</glyph>
<glyph name="knsignvRR" format="1">
  <advance width="446"/>
  <unicode hex="0CC4"/>
  <outline>
    <contour>
      <point x="291" y="-171" type="curve" smooth="yes"/>
      <point x="260" y="-171"/>
      <point x="239" y="-151"/>
      <point x="239" y="-127" type="curve" smooth="yes"/>
      <point x="239" y="-96"/>
      <point x="264" y="-69"/>
      <point x="307" y="-69" type="curve" smooth="yes"/>
      <point x="323" y="-69"/>
      <point x="340" y="-70"/>
      <point x="355" y="-74" type="curve"/>
      <point x="355" y="-82"/>
      <point x="355" y="-82"/>
      <point x="355" y="-82" type="curve" smooth="yes"/>
      <point x="355" y="-134"/>
      <point x="330" y="-171"/>
    </contour>
    <contour>
      <point x="-145" y="-223" type="curve" smooth="yes"/>
      <point x="-164" y="-223"/>
      <point x="-182" y="-218"/>
      <point x="-197" y="-209" type="curve"/>
      <point x="-193" y="-177"/>
      <point x="-173" y="-152"/>
      <point x="-141" y="-152" type="curve" smooth="yes"/>
      <point x="-115" y="-152"/>
      <point x="-100" y="-167"/>
      <point x="-100" y="-186" type="curve" smooth="yes"/>
      <point x="-100" y="-213"/>
      <point x="-122" y="-223"/>
    </contour>
    <contour>
      <point x="75" y="-324" type="curve" smooth="yes"/>
      <point x="102" y="-297"/>
      <point x="122" y="-255"/>
      <point x="122" y="-194" type="curve" smooth="yes"/>
      <point x="122" y="-140"/>
      <point x="111" y="-61"/>
      <point x="83" y="28" type="curve"/>
      <point x="200" y="28" type="line" smooth="yes"/>
      <point x="271" y="28"/>
      <point x="319" y="7"/>
      <point x="341" y="-29" type="curve"/>
      <point x="329" y="-28"/>
      <point x="318" y="-27"/>
      <point x="307" y="-27" type="curve" smooth="yes"/>
      <point x="234" y="-27"/>
      <point x="197" y="-76"/>
      <point x="197" y="-127" type="curve" smooth="yes"/>
      <point x="197" y="-171"/>
      <point x="230" y="-213"/>
      <point x="291" y="-213" type="curve" smooth="yes"/>
      <point x="348" y="-213"/>
      <point x="397" y="-168"/>
      <point x="397" y="-82" type="curve" smooth="yes"/>
      <point x="397" y="2"/>
      <point x="342" y="70"/>
      <point x="200" y="70" type="curve" smooth="yes"/>
      <point x="54" y="70" type="line" smooth="yes"/>
      <point x="43" y="70"/>
      <point x="33" y="60"/>
      <point x="33" y="49" type="curve" smooth="yes"/>
      <point x="33" y="43"/>
      <point x="35" y="36"/>
      <point x="46" y="4" type="curve" smooth="yes"/>
      <point x="65" y="-56"/>
      <point x="80" y="-139"/>
      <point x="80" y="-194" type="curve" smooth="yes"/>
      <point x="80" y="-241"/>
      <point x="66" y="-273"/>
      <point x="45" y="-294" type="curve" smooth="yes"/>
      <point x="22" y="-317"/>
      <point x="-14" y="-330"/>
      <point x="-59" y="-330" type="curve" smooth="yes"/>
      <point x="-110" y="-330"/>
      <point x="-146" y="-316"/>
      <point x="-167" y="-295" type="curve" smooth="yes"/>
      <point x="-178" y="-284"/>
      <point x="-186" y="-272"/>
      <point x="-192" y="-258" type="curve"/>
      <point x="-177" y="-262"/>
      <point x="-161" y="-265"/>
      <point x="-145" y="-265" type="curve" smooth="yes"/>
      <point x="-96" y="-265"/>
      <point x="-58" y="-237"/>
      <point x="-58" y="-186" type="curve" smooth="yes"/>
      <point x="-58" y="-149"/>
      <point x="-83" y="-110"/>
      <point x="-141" y="-110" type="curve" smooth="yes"/>
      <point x="-198" y="-110"/>
      <point x="-240" y="-156"/>
      <point x="-240" y="-223" type="curve" smooth="yes"/>
      <point x="-240" y="-263"/>
      <point x="-224" y="-298"/>
      <point x="-197" y="-325" type="curve" smooth="yes"/>
      <point x="-170" y="-352"/>
      <point x="-124" y="-372"/>
      <point x="-59" y="-372" type="curve" smooth="yes"/>
      <point x="0" y="-372"/>
      <point x="46" y="-353"/>
    </contour>
  </outline>
</glyph>
<glyph name="knVirama" format="1">
  <advance width="280"/>
  <unicode hex="0CCD"/>
  <outline>
    <contour>
      <point x="130" y="223" type="curve" smooth="yes"/>
      <point x="194" y="223"/>
      <point x="239" y="265"/>
      <point x="239" y="333" type="curve" smooth="yes"/>
      <point x="239" y="389"/>
      <point x="201" y="453"/>
      <point x="99" y="456" type="curve"/>
      <point x="120" y="482"/>
      <point x="151" y="508"/>
      <point x="195" y="532" type="curve" smooth="yes"/>
      <point x="203" y="536"/>
      <point x="207" y="544"/>
      <point x="207" y="552" type="curve" smooth="yes"/>
      <point x="207" y="566"/>
      <point x="195" y="575"/>
      <point x="184" y="575" type="curve" smooth="yes"/>
      <point x="180" y="575"/>
      <point x="176" y="574"/>
      <point x="173" y="572" type="curve" smooth="yes"/>
      <point x="106" y="536"/>
      <point x="66" y="495"/>
      <point x="42" y="456" type="curve"/>
      <point x="-211" y="456" type="line" smooth="yes"/>
      <point x="-223" y="456"/>
      <point x="-234" y="445"/>
      <point x="-234" y="433" type="curve" smooth="yes"/>
      <point x="-234" y="421"/>
      <point x="-223" y="410"/>
      <point x="-211" y="410" type="curve" smooth="yes"/>
      <point x="22" y="410" type="line"/>
      <point x="15" y="387"/>
      <point x="13" y="365"/>
      <point x="13" y="345" type="curve" smooth="yes"/>
      <point x="13" y="270"/>
      <point x="68" y="223"/>
    </contour>
    <contour>
      <point x="130" y="269" type="curve" smooth="yes"/>
      <point x="92" y="269"/>
      <point x="59" y="300"/>
      <point x="59" y="345" type="curve" smooth="yes"/>
      <point x="59" y="365"/>
      <point x="62" y="387"/>
      <point x="72" y="410" type="curve"/>
      <point x="91" y="410" type="line" smooth="yes"/>
      <point x="159" y="410"/>
      <point x="193" y="372"/>
      <point x="193" y="333" type="curve" smooth="yes"/>
      <point x="193" y="293"/>
      <point x="168" y="269"/>
    </contour>
  </outline>
</glyph>
<glyph name="quotedblbase" format="1">
  <advance width="406"/>
  <unicode hex="201E"/>
  <outline>
    <contour>
      <point x="149" y="85" type="curve" smooth="yes"/>
      <point x="146" y="96"/>
      <point x="136" y="104"/>
      <point x="125" y="104" type="curve" smooth="yes"/>
      <point x="111" y="104"/>
      <point x="100" y="92"/>
      <point x="100" y="79" type="curve" smooth="yes"/>
      <point x="100" y="71"/>
      <point x="106" y="57"/>
      <point x="106" y="22" type="curve" smooth="yes"/>
      <point x="106" y="-12"/>
      <point x="92" y="-51"/>
      <point x="69" y="-81" type="curve" smooth="yes"/>
      <point x="66" y="-85"/>
      <point x="64" y="-91"/>
      <point x="64" y="-96" type="curve" smooth="yes"/>
      <point x="64" y="-109"/>
      <point x="75" y="-121"/>
      <point x="89" y="-121" type="curve" smooth="yes"/>
      <point x="97" y="-121"/>
      <point x="104" y="-118"/>
      <point x="109" y="-111" type="curve" smooth="yes"/>
      <point x="138" y="-73"/>
      <point x="156" y="-22"/>
      <point x="156" y="22" type="curve" smooth="yes"/>
      <point x="156" y="49"/>
      <point x="154" y="67"/>
    </contour>
    <contour>
      <point x="309" y="85" type="curve" smooth="yes"/>
      <point x="306" y="96"/>
      <point x="296" y="104"/>
      <point x="285" y="104" type="curve" smooth="yes"/>
      <point x="271" y="104"/>
      <point x="260" y="92"/>
      <point x="260" y="79" type="curve" smooth="yes"/>
      <point x="260" y="72"/>
      <point x="266" y="56"/>
      <point x="266" y="22" type="curve" smooth="yes"/>
      <point x="266" y="-12"/>
      <point x="252" y="-51"/>
      <point x="229" y="-81" type="curve" smooth="yes"/>
      <point x="226" y="-85"/>
      <point x="224" y="-91"/>
      <point x="224" y="-96" type="curve" smooth="yes"/>
      <point x="224" y="-109"/>
      <point x="235" y="-121"/>
      <point x="249" y="-121" type="curve" smooth="yes"/>
      <point x="257" y="-121"/>
      <point x="264" y="-118"/>
      <point x="269" y="-111" type="curve" smooth="yes"/>
      <point x="298" y="-73"/>
      <point x="316" y="-22"/>
      <point x="316" y="22" type="curve" smooth="yes"/>
      <point x="316" y="49"/>
      <point x="314" y="67"/>
    </contour>
  </outline>
</glyph>
<glyph name="knBAc2" format="1">
  <advance width="119"/>
  <outline>
    <contour>
      <point x="35" y="-377" type="curve" smooth="yes"/>
      <point x="89" y="-377"/>
      <point x="138" y="-341"/>
      <point x="138" y="-251" type="curve" smooth="yes"/>
      <point x="138" y="-154"/>
      <point x="107" y="-43"/>
      <point x="75" y="51" type="curve" smooth="yes"/>
      <point x="72" y="59"/>
      <point x="63" y="65"/>
      <point x="55" y="65" type="curve" smooth="yes"/>
      <point x="43" y="65"/>
      <point x="34" y="54"/>
      <point x="34" y="44" type="curve" smooth="yes"/>
      <point x="34" y="41"/>
      <point x="34" y="39"/>
      <point x="41" y="19" type="curve" smooth="yes"/>
      <point x="65" y="-53"/>
      <point x="96" y="-158"/>
      <point x="96" y="-251" type="curve" smooth="yes"/>
      <point x="96" y="-305"/>
      <point x="71" y="-335"/>
      <point x="35" y="-335" type="curve" smooth="yes"/>
      <point x="4" y="-335"/>
      <point x="-17" y="-321"/>
      <point x="-48" y="-290" type="curve" smooth="yes"/>
      <point x="-52" y="-286"/>
      <point x="-58" y="-284"/>
      <point x="-63" y="-284" type="curve" smooth="yes"/>
      <point x="-67" y="-284" type="line" smooth="yes"/>
      <point x="-72" y="-284"/>
      <point x="-77" y="-287"/>
      <point x="-81" y="-290" type="curve" smooth="yes"/>
      <point x="-114" y="-322"/>
      <point x="-140" y="-335"/>
      <point x="-174" y="-335" type="curve" smooth="yes"/>
      <point x="-202" y="-335"/>
      <point x="-220" y="-321"/>
      <point x="-220" y="-298" type="curve" smooth="yes"/>
      <point x="-220" y="-278"/>
      <point x="-203" y="-261"/>
      <point x="-181" y="-250" type="curve" smooth="yes"/>
      <point x="-134" y="-225"/>
      <point x="-115" y="-197"/>
      <point x="-115" y="-171" type="curve" smooth="yes"/>
      <point x="-115" y="-132"/>
      <point x="-151" y="-100"/>
      <point x="-198" y="-100" type="curve" smooth="yes"/>
      <point x="-226" y="-100"/>
      <point x="-247" y="-105"/>
      <point x="-269" y="-116" type="curve" smooth="yes"/>
      <point x="-276" y="-120"/>
      <point x="-280" y="-128"/>
      <point x="-280" y="-136" type="curve" smooth="yes"/>
      <point x="-280" y="-147"/>
      <point x="-269" y="-156"/>
      <point x="-258" y="-156" type="curve" smooth="yes"/>
      <point x="-255" y="-156"/>
      <point x="-250" y="-155"/>
      <point x="-241" y="-150" type="curve" smooth="yes"/>
      <point x="-229" y="-144"/>
      <point x="-218" y="-142"/>
      <point x="-198" y="-142" type="curve" smooth="yes"/>
      <point x="-179" y="-142"/>
      <point x="-157" y="-152"/>
      <point x="-157" y="-171" type="curve" smooth="yes"/>
      <point x="-157" y="-187"/>
      <point x="-176" y="-199"/>
      <point x="-201" y="-212" type="curve" smooth="yes"/>
      <point x="-239" y="-233"/>
      <point x="-262" y="-264"/>
      <point x="-262" y="-298" type="curve" smooth="yes"/>
      <point x="-262" y="-341"/>
      <point x="-234" y="-377"/>
      <point x="-174" y="-377" type="curve" smooth="yes"/>
      <point x="-134" y="-377"/>
      <point x="-104" y="-364"/>
      <point x="-66" y="-331" type="curve"/>
      <point x="-30" y="-364"/>
      <point x="-2" y="-377"/>
    </contour>
  </outline>
</glyph>
<glyph name="knCAc2" format="1">
  <advance width="0"/>
  <outline>
    <contour>
      <point x="39" y="-377" type="curve" smooth="yes"/>
      <point x="104" y="-377"/>
      <point x="137" y="-337"/>
      <point x="137" y="-285" type="curve" smooth="yes"/>
      <point x="137" y="-264"/>
      <point x="131" y="-245"/>
      <point x="121" y="-226" type="curve"/>
      <point x="156" y="-226" type="line" smooth="yes"/>
      <point x="167" y="-226"/>
      <point x="177" y="-216"/>
      <point x="177" y="-205" type="curve" smooth="yes"/>
      <point x="177" y="-194"/>
      <point x="167" y="-184"/>
      <point x="156" y="-184" type="curve" smooth="yes"/>
      <point x="-18" y="-184" type="line" smooth="yes"/>
      <point x="-29" y="-184"/>
      <point x="-39" y="-194"/>
      <point x="-39" y="-205" type="curve" smooth="yes"/>
      <point x="-39" y="-216"/>
      <point x="-29" y="-226"/>
      <point x="-18" y="-226" type="curve" smooth="yes"/>
      <point x="72" y="-226" type="line"/>
      <point x="85" y="-244"/>
      <point x="95" y="-263"/>
      <point x="95" y="-285" type="curve" smooth="yes"/>
      <point x="95" y="-315"/>
      <point x="74" y="-335"/>
      <point x="39" y="-335" type="curve" smooth="yes"/>
      <point x="6" y="-335"/>
      <point x="-26" y="-321"/>
      <point x="-57" y="-290" type="curve" smooth="yes"/>
      <point x="-61" y="-287"/>
      <point x="-67" y="-284"/>
      <point x="-72" y="-284" type="curve" smooth="yes"/>
      <point x="-76" y="-284" type="line" smooth="yes"/>
      <point x="-81" y="-284"/>
      <point x="-86" y="-287"/>
      <point x="-90" y="-290" type="curve" smooth="yes"/>
      <point x="-123" y="-322"/>
      <point x="-154" y="-335"/>
      <point x="-188" y="-335" type="curve" smooth="yes"/>
      <point x="-219" y="-335"/>
      <point x="-242" y="-322"/>
      <point x="-242" y="-298" type="curve" smooth="yes"/>
      <point x="-242" y="-278"/>
      <point x="-225" y="-261"/>
      <point x="-203" y="-250" type="curve" smooth="yes"/>
      <point x="-156" y="-225"/>
      <point x="-137" y="-197"/>
      <point x="-137" y="-171" type="curve" smooth="yes"/>
      <point x="-137" y="-132"/>
      <point x="-173" y="-100"/>
      <point x="-220" y="-100" type="curve" smooth="yes"/>
      <point x="-248" y="-100"/>
      <point x="-269" y="-105"/>
      <point x="-291" y="-116" type="curve" smooth="yes"/>
      <point x="-298" y="-120"/>
      <point x="-302" y="-128"/>
      <point x="-302" y="-136" type="curve" smooth="yes"/>
      <point x="-302" y="-148"/>
      <point x="-291" y="-156"/>
      <point x="-280" y="-156" type="curve" smooth="yes"/>
      <point x="-277" y="-156"/>
      <point x="-273" y="-155"/>
      <point x="-265" y="-151" type="curve" smooth="yes"/>
      <point x="-253" y="-145"/>
      <point x="-240" y="-142"/>
      <point x="-220" y="-142" type="curve" smooth="yes"/>
      <point x="-201" y="-142"/>
      <point x="-179" y="-152"/>
      <point x="-179" y="-171" type="curve" smooth="yes"/>
      <point x="-179" y="-187"/>
      <point x="-198" y="-199"/>
      <point x="-223" y="-212" type="curve" smooth="yes"/>
      <point x="-261" y="-233"/>
      <point x="-284" y="-264"/>
      <point x="-284" y="-298" type="curve" smooth="yes"/>
      <point x="-284" y="-340"/>
      <point x="-253" y="-377"/>
      <point x="-188" y="-377" type="curve" smooth="yes"/>
      <point x="-148" y="-377"/>
      <point x="-114" y="-364"/>
      <point x="-75" y="-331" type="curve"/>
      <point x="-38" y="-364"/>
      <point x="0" y="-377"/>
    </contour>
  </outline>
</glyph>
<glyph name="knDDHI" format="1">
  <advance width="757"/>
  <outline>
    <contour>
      <point x="523" y="0" type="curve" smooth="yes"/>
      <point x="628" y="0"/>
      <point x="691" y="67"/>
      <point x="691" y="168" type="curve" smooth="yes"/>
      <point x="691" y="204"/>
      <point x="681" y="241"/>
      <point x="662" y="276" type="curve"/>
      <point x="662" y="277" type="line" smooth="yes"/>
      <point x="662" y="397"/>
      <point x="626" y="450"/>
      <point x="570" y="504" type="curve" smooth="yes"/>
      <point x="515" y="557"/>
      <point x="408" y="589"/>
      <point x="314" y="589" type="curve" smooth="yes"/>
      <point x="145" y="589"/>
      <point x="95" y="510"/>
      <point x="95" y="449" type="curve" smooth="yes"/>
      <point x="95" y="416"/>
      <point x="115" y="380"/>
      <point x="150" y="352" type="curve"/>
      <point x="103" y="304"/>
      <point x="73" y="239"/>
      <point x="73" y="164" type="curve" smooth="yes"/>
      <point x="73" y="58"/>
      <point x="144" y="0"/>
      <point x="223" y="0" type="curve" smooth="yes"/>
      <point x="287" y="0"/>
      <point x="330" y="26"/>
      <point x="367" y="84" type="curve"/>
      <point x="410" y="26"/>
      <point x="468" y="0"/>
    </contour>
    <contour>
      <point x="375" y="446" type="curve" smooth="yes"/>
      <point x="306" y="446"/>
      <point x="239" y="423"/>
      <point x="185" y="383" type="curve"/>
      <point x="159" y="401"/>
      <point x="141" y="424"/>
      <point x="141" y="449" type="curve" smooth="yes"/>
      <point x="141" y="498"/>
      <point x="207" y="543"/>
      <point x="321" y="543" type="curve" smooth="yes"/>
      <point x="394" y="543"/>
      <point x="491" y="517"/>
      <point x="538" y="470" type="curve" smooth="yes"/>
      <point x="573" y="436"/>
      <point x="599" y="403"/>
      <point x="610" y="347" type="curve"/>
      <point x="554" y="405"/>
      <point x="471" y="446"/>
    </contour>
    <contour>
      <point x="390" y="-93" type="line" smooth="yes"/>
      <point x="390" y="-81"/>
      <point x="379" y="-70"/>
      <point x="367" y="-70" type="curve" smooth="yes"/>
      <point x="355" y="-70"/>
      <point x="344" y="-81"/>
      <point x="344" y="-93" type="curve" smooth="yes"/>
      <point x="344" y="-196" type="line" smooth="yes"/>
      <point x="344" y="-208"/>
      <point x="355" y="-219"/>
      <point x="367" y="-219" type="curve" smooth="yes"/>
      <point x="379" y="-219"/>
      <point x="390" y="-208"/>
      <point x="390" y="-196" type="curve" smooth="yes"/>
    </contour>
    <contour>
      <point x="375" y="400" type="curve" smooth="yes"/>
      <point x="425" y="400"/>
      <point x="475" y="387"/>
      <point x="512" y="365" type="curve"/>
      <point x="462" y="348"/>
      <point x="431" y="304"/>
      <point x="431" y="258" type="curve" smooth="yes"/>
      <point x="431" y="204"/>
      <point x="473" y="155"/>
      <point x="537" y="155" type="curve" smooth="yes"/>
      <point x="579" y="155"/>
      <point x="615" y="172"/>
      <point x="641" y="203" type="curve"/>
      <point x="644" y="192"/>
      <point x="645" y="179"/>
      <point x="645" y="168" type="curve" smooth="yes"/>
      <point x="645" y="95"/>
      <point x="600" y="46"/>
      <point x="523" y="46" type="curve" smooth="yes"/>
      <point x="474" y="46"/>
      <point x="421" y="74"/>
      <point x="389" y="135" type="curve" smooth="yes"/>
      <point x="385" y="142"/>
      <point x="377" y="147"/>
      <point x="369" y="147" type="curve" smooth="yes"/>
      <point x="364" y="147" type="line" smooth="yes"/>
      <point x="356" y="147"/>
      <point x="348" y="142"/>
      <point x="344" y="135" type="curve" smooth="yes"/>
      <point x="314" y="77"/>
      <point x="279" y="46"/>
      <point x="223" y="46" type="curve" smooth="yes"/>
      <point x="166" y="46"/>
      <point x="119" y="90"/>
      <point x="119" y="164" type="curve" smooth="yes"/>
      <point x="119" y="303"/>
      <point x="245" y="400"/>
    </contour>
    <contour>
      <point x="537" y="200" type="curve" smooth="yes"/>
      <point x="501" y="200"/>
      <point x="475" y="227"/>
      <point x="475" y="258" type="curve" smooth="yes"/>
      <point x="475" y="294"/>
      <point x="507" y="332"/>
      <point x="557" y="332" type="curve" smooth="yes"/>
      <point x="559" y="332" type="line"/>
      <point x="585" y="311"/>
      <point x="610" y="280"/>
      <point x="624" y="252" type="curve"/>
      <point x="608" y="221"/>
      <point x="575" y="200"/>
    </contour>
  </outline>
</glyph>
<glyph name="knGO" format="1">
  <advance width="1230"/>
  <outline>
    <contour>
      <point x="446" y="508" type="curve" smooth="yes"/>
      <point x="446" y="553"/>
      <point x="474" y="589"/>
      <point x="517" y="589" type="curve" smooth="yes"/>
      <point x="553" y="589"/>
      <point x="580" y="566"/>
      <point x="580" y="532" type="curve" smooth="yes"/>
      <point x="580" y="487"/>
      <point x="542" y="456"/>
      <point x="453" y="456" type="curve"/>
      <point x="450" y="470"/>
      <point x="446" y="489"/>
    </contour>
    <contour>
      <point x="1030" y="-4" type="curve" smooth="yes"/>
      <point x="1103" y="-4"/>
      <point x="1163" y="55"/>
      <point x="1163" y="167" type="curve" smooth="yes"/>
      <point x="1163" y="354"/>
      <point x="1024" y="456"/>
      <point x="914" y="456" type="curve" smooth="yes"/>
      <point x="805" y="456"/>
      <point x="749" y="366"/>
      <point x="749" y="288" type="curve" smooth="yes"/>
      <point x="749" y="228"/>
      <point x="774" y="178"/>
      <point x="774" y="125" type="curve" smooth="yes"/>
      <point x="774" y="78"/>
      <point x="749" y="46"/>
      <point x="696" y="46" type="curve" smooth="yes"/>
      <point x="641" y="46"/>
      <point x="596" y="91"/>
      <point x="560" y="147" type="curve"/>
      <point x="561" y="158"/>
      <point x="561" y="166"/>
      <point x="561" y="176" type="curve" smooth="yes"/>
      <point x="561" y="256"/>
      <point x="526" y="345"/>
      <point x="443" y="410" type="curve"/>
      <point x="453" y="410" type="line" smooth="yes"/>
      <point x="593" y="410"/>
      <point x="626" y="471"/>
      <point x="626" y="532" type="curve" smooth="yes"/>
      <point x="626" y="590"/>
      <point x="583" y="635"/>
      <point x="517" y="635" type="curve" smooth="yes"/>
      <point x="450" y="635"/>
      <point x="400" y="583"/>
      <point x="400" y="508" type="curve" smooth="yes"/>
      <point x="400" y="490"/>
      <point x="403" y="471"/>
      <point x="406" y="456" type="curve"/>
      <point x="92" y="456" type="line" smooth="yes"/>
      <point x="80" y="456"/>
      <point x="69" y="445"/>
      <point x="69" y="433" type="curve" smooth="yes"/>
      <point x="69" y="421"/>
      <point x="80" y="410"/>
      <point x="92" y="410" type="curve" smooth="yes"/>
      <point x="222" y="410" type="line"/>
      <point x="142" y="346"/>
      <point x="110" y="256"/>
      <point x="110" y="176" type="curve" smooth="yes"/>
      <point x="110" y="111"/>
      <point x="124" y="59"/>
      <point x="148" y="12" type="curve" smooth="yes"/>
      <point x="152" y="4"/>
      <point x="160" y="0"/>
      <point x="168" y="0" type="curve" smooth="yes"/>
      <point x="181" y="0"/>
      <point x="191" y="12"/>
      <point x="191" y="23" type="curve" smooth="yes"/>
      <point x="191" y="27"/>
      <point x="190" y="31"/>
      <point x="188" y="34" type="curve" smooth="yes"/>
      <point x="167" y="75"/>
      <point x="156" y="119"/>
      <point x="156" y="176" type="curve" smooth="yes"/>
      <point x="156" y="262"/>
      <point x="199" y="358"/>
      <point x="309" y="410" type="curve"/>
      <point x="355" y="410" type="line"/>
      <point x="467" y="357"/>
      <point x="515" y="261"/>
      <point x="515" y="176" type="curve" smooth="yes"/>
      <point x="515" y="118"/>
      <point x="503" y="77"/>
      <point x="486" y="41" type="curve" smooth="yes"/>
      <point x="481" y="31"/>
      <point x="480" y="27"/>
      <point x="480" y="23" type="curve" smooth="yes"/>
      <point x="480" y="11"/>
      <point x="491" y="0"/>
      <point x="502" y="0" type="curve" smooth="yes"/>
      <point x="511" y="0"/>
      <point x="520" y="5"/>
      <point x="524" y="13" type="curve" smooth="yes"/>
      <point x="535" y="36"/>
      <point x="543" y="58"/>
      <point x="550" y="83" type="curve"/>
      <point x="596" y="26"/>
      <point x="646" y="0"/>
      <point x="696" y="0" type="curve" smooth="yes"/>
      <point x="779" y="0"/>
      <point x="820" y="50"/>
      <point x="820" y="125" type="curve" smooth="yes"/>
      <point x="820" y="178"/>
      <point x="795" y="228"/>
      <point x="795" y="288" type="curve" smooth="yes"/>
      <point x="795" y="344"/>
      <point x="835" y="410"/>
      <point x="914" y="410" type="curve" smooth="yes"/>
      <point x="994" y="410"/>
      <point x="1089" y="341"/>
      <point x="1112" y="221" type="curve"/>
      <point x="1092" y="226"/>
      <point x="1071" y="229"/>
      <point x="1051" y="229" type="curve" smooth="yes"/>
      <point x="960" y="229"/>
      <point x="918" y="171"/>
      <point x="918" y="106" type="curve" smooth="yes"/>
      <point x="918" y="48"/>
      <point x="959" y="-4"/>
    </contour>
    <contour>
      <point x="1030" y="42" type="curve" smooth="yes"/>
      <point x="989" y="42"/>
      <point x="964" y="72"/>
      <point x="964" y="106" type="curve" smooth="yes"/>
      <point x="964" y="149"/>
      <point x="994" y="183"/>
      <point x="1051" y="183" type="curve" smooth="yes"/>
      <point x="1074" y="183"/>
      <point x="1097" y="178"/>
      <point x="1117" y="172" type="curve"/>
      <point x="1117" y="167" type="line" smooth="yes"/>
      <point x="1117" y="93"/>
      <point x="1083" y="42"/>
    </contour>
  </outline>
</glyph>
<glyph name="knKH" format="1">
  <advance width="1039"/>
  <outline>
    <contour>
      <point x="193" y="311" type="curve" smooth="yes"/>
      <point x="161" y="311"/>
      <point x="134" y="334"/>
      <point x="134" y="365" type="curve" smooth="yes"/>
      <point x="134" y="395"/>
      <point x="161" y="424"/>
      <point x="208" y="424" type="curve" smooth="yes"/>
      <point x="225" y="424"/>
      <point x="241" y="422"/>
      <point x="256" y="419" type="curve"/>
      <point x="260" y="407"/>
      <point x="265" y="391"/>
      <point x="265" y="373" type="curve" smooth="yes"/>
      <point x="265" y="335"/>
      <point x="235" y="311"/>
    </contour>
    <contour>
      <point x="889" y="269" type="curve" smooth="yes"/>
      <point x="851" y="269"/>
      <point x="818" y="300"/>
      <point x="818" y="345" type="curve" smooth="yes"/>
      <point x="818" y="365"/>
      <point x="821" y="387"/>
      <point x="831" y="410" type="curve"/>
      <point x="850" y="410" type="line" smooth="yes"/>
      <point x="918" y="410"/>
      <point x="952" y="372"/>
      <point x="952" y="333" type="curve" smooth="yes"/>
      <point x="952" y="293"/>
      <point x="927" y="269"/>
    </contour>
    <contour>
      <point x="208" y="42" type="curve" smooth="yes"/>
      <point x="153" y="42"/>
      <point x="123" y="67"/>
      <point x="123" y="97" type="curve" smooth="yes"/>
      <point x="123" y="124"/>
      <point x="153" y="152"/>
      <point x="197" y="152" type="curve" smooth="yes"/>
      <point x="247" y="152"/>
      <point x="295" y="130"/>
      <point x="339" y="98" type="curve"/>
      <point x="307" y="65"/>
      <point x="263" y="42"/>
    </contour>
    <contour>
      <point x="556" y="0" type="curve" smooth="yes"/>
      <point x="639" y="0"/>
      <point x="707" y="56"/>
      <point x="707" y="175" type="curve" smooth="yes"/>
      <point x="707" y="263"/>
      <point x="671" y="345"/>
      <point x="619" y="410" type="curve"/>
      <point x="781" y="410" type="line"/>
      <point x="774" y="387"/>
      <point x="772" y="365"/>
      <point x="772" y="345" type="curve" smooth="yes"/>
      <point x="772" y="270"/>
      <point x="827" y="223"/>
      <point x="889" y="223" type="curve" smooth="yes"/>
      <point x="953" y="223"/>
      <point x="998" y="265"/>
      <point x="998" y="333" type="curve" smooth="yes"/>
      <point x="998" y="389"/>
      <point x="960" y="453"/>
      <point x="858" y="456" type="curve"/>
      <point x="879" y="482"/>
      <point x="910" y="508"/>
      <point x="954" y="532" type="curve" smooth="yes"/>
      <point x="962" y="536"/>
      <point x="966" y="544"/>
      <point x="966" y="552" type="curve" smooth="yes"/>
      <point x="966" y="566"/>
      <point x="954" y="575"/>
      <point x="943" y="575" type="curve" smooth="yes"/>
      <point x="939" y="575"/>
      <point x="935" y="574"/>
      <point x="932" y="572" type="curve" smooth="yes"/>
      <point x="865" y="536"/>
      <point x="825" y="495"/>
      <point x="801" y="456" type="curve"/>
      <point x="476" y="456" type="line" smooth="yes"/>
      <point x="464" y="456"/>
      <point x="453" y="445"/>
      <point x="453" y="433" type="curve" smooth="yes"/>
      <point x="453" y="421"/>
      <point x="464" y="410"/>
      <point x="476" y="410" type="curve" smooth="yes"/>
      <point x="559" y="410" type="line"/>
      <point x="617" y="350"/>
      <point x="661" y="265"/>
      <point x="661" y="175" type="curve" smooth="yes"/>
      <point x="661" y="92"/>
      <point x="617" y="46"/>
      <point x="556" y="46" type="curve" smooth="yes"/>
      <point x="500" y="46"/>
      <point x="454" y="65"/>
      <point x="403" y="107" type="curve"/>
      <point x="428" y="148"/>
      <point x="442" y="195"/>
      <point x="442" y="238" type="curve" smooth="yes"/>
      <point x="442" y="366"/>
      <point x="347" y="470"/>
      <point x="208" y="470" type="curve" smooth="yes"/>
      <point x="123" y="470"/>
      <point x="88" y="413"/>
      <point x="88" y="365" type="curve" smooth="yes"/>
      <point x="88" y="310"/>
      <point x="133" y="265"/>
      <point x="193" y="265" type="curve" smooth="yes"/>
      <point x="267" y="265"/>
      <point x="311" y="311"/>
      <point x="311" y="373" type="curve" smooth="yes"/>
      <point x="311" y="381"/>
      <point x="310" y="389"/>
      <point x="309" y="397" type="curve"/>
      <point x="363" y="364"/>
      <point x="396" y="305"/>
      <point x="396" y="238" type="curve" smooth="yes"/>
      <point x="396" y="205"/>
      <point x="386" y="168"/>
      <point x="366" y="135" type="curve"/>
      <point x="314" y="173"/>
      <point x="256" y="198"/>
      <point x="197" y="198" type="curve" smooth="yes"/>
      <point x="115" y="198"/>
      <point x="77" y="140"/>
      <point x="77" y="97" type="curve" smooth="yes"/>
      <point x="77" y="51"/>
      <point x="107" y="-4"/>
      <point x="208" y="-4" type="curve" smooth="yes"/>
      <point x="278" y="-4"/>
      <point x="335" y="26"/>
      <point x="374" y="70" type="curve"/>
      <point x="435" y="21"/>
      <point x="491" y="0"/>
    </contour>
  </outline>
</glyph>
<glyph name="knKU" format="1">
  <advance width="953"/>
  <outline>
    <contour>
      <point x="351" y="38" type="curve" smooth="yes"/>
      <point x="249" y="38"/>
      <point x="208" y="92"/>
      <point x="208" y="147" type="curve" smooth="yes"/>
      <point x="208" y="205"/>
      <point x="259" y="249"/>
      <point x="327" y="255" type="curve"/>
      <point x="382" y="255" type="line"/>
      <point x="457" y="245"/>
      <point x="496" y="196"/>
      <point x="496" y="147" type="curve" smooth="yes"/>
      <point x="496" y="93"/>
      <point x="455" y="38"/>
    </contour>
    <contour>
      <point x="724" y="0" type="curve" smooth="yes"/>
      <point x="830" y="0"/>
      <point x="886" y="69"/>
      <point x="886" y="169" type="curve" smooth="yes"/>
      <point x="886" y="255"/>
      <point x="838" y="357"/>
      <point x="774" y="427" type="curve" smooth="yes"/>
      <point x="770" y="432"/>
      <point x="764" y="435"/>
      <point x="757" y="435" type="curve" smooth="yes"/>
      <point x="744" y="435"/>
      <point x="734" y="425"/>
      <point x="734" y="412" type="curve" smooth="yes"/>
      <point x="734" y="407"/>
      <point x="736" y="401"/>
      <point x="740" y="397" type="curve" smooth="yes"/>
      <point x="796" y="335"/>
      <point x="840" y="245"/>
      <point x="840" y="169" type="curve" smooth="yes"/>
      <point x="840" y="97"/>
      <point x="802" y="46"/>
      <point x="724" y="46" type="curve" smooth="yes"/>
      <point x="654" y="46"/>
      <point x="594" y="93"/>
      <point x="534" y="194" type="curve"/>
      <point x="526" y="217"/>
      <point x="512" y="238"/>
      <point x="493" y="255" type="curve"/>
      <point x="607" y="255" type="line" smooth="yes"/>
      <point x="619" y="255"/>
      <point x="630" y="266"/>
      <point x="630" y="278" type="curve" smooth="yes"/>
      <point x="630" y="290"/>
      <point x="619" y="301"/>
      <point x="607" y="301" type="curve" smooth="yes"/>
      <point x="375" y="301" type="line"/>
      <point x="375" y="410" type="line"/>
      <point x="480" y="410" type="line" smooth="yes"/>
      <point x="563" y="410"/>
      <point x="611" y="440"/>
      <point x="648" y="499" type="curve" smooth="yes"/>
      <point x="650" y="503"/>
      <point x="651" y="507"/>
      <point x="651" y="511" type="curve" smooth="yes"/>
      <point x="651" y="524"/>
      <point x="642" y="534"/>
      <point x="628" y="534" type="curve" smooth="yes"/>
      <point x="620" y="534"/>
      <point x="613" y="530"/>
      <point x="608" y="523" type="curve" smooth="yes"/>
      <point x="580" y="478"/>
      <point x="543" y="456"/>
      <point x="480" y="456" type="curve" smooth="yes"/>
      <point x="98" y="456" type="line" smooth="yes"/>
      <point x="86" y="456"/>
      <point x="75" y="445"/>
      <point x="75" y="433" type="curve" smooth="yes"/>
      <point x="75" y="421"/>
      <point x="86" y="410"/>
      <point x="98" y="410" type="curve" smooth="yes"/>
      <point x="329" y="410" type="line"/>
      <point x="329" y="301" type="line"/>
      <point x="94" y="301" type="line" smooth="yes"/>
      <point x="82" y="301"/>
      <point x="71" y="290"/>
      <point x="71" y="278" type="curve" smooth="yes"/>
      <point x="71" y="266"/>
      <point x="82" y="255"/>
      <point x="94" y="255" type="curve" smooth="yes"/>
      <point x="210" y="255" type="line"/>
      <point x="179" y="226"/>
      <point x="162" y="188"/>
      <point x="162" y="147" type="curve" smooth="yes"/>
      <point x="162" y="74"/>
      <point x="207" y="-8"/>
      <point x="351" y="-8" type="curve" smooth="yes"/>
      <point x="472" y="-8"/>
      <point x="523" y="48"/>
      <point x="537" y="107" type="curve"/>
      <point x="597" y="32"/>
      <point x="658" y="0"/>
    </contour>
  </outline>
</glyph>
<glyph name="knLI" format="1">
  <advance width="748"/>
  <outline>
    <contour>
      <point x="453" y="469" type="curve" smooth="yes"/>
      <point x="412" y="469"/>
      <point x="388" y="497"/>
      <point x="388" y="527" type="curve" smooth="yes"/>
      <point x="388" y="555"/>
      <point x="411" y="588"/>
      <point x="455" y="588" type="curve" smooth="yes"/>
      <point x="492" y="588"/>
      <point x="522" y="573"/>
      <point x="550" y="546" type="curve" smooth="yes"/>
      <point x="552" y="544"/>
      <point x="555" y="541"/>
      <point x="557" y="538" type="curve"/>
      <point x="527" y="493"/>
      <point x="494" y="469"/>
    </contour>
    <contour>
      <point x="224" y="299" type="curve" smooth="yes"/>
      <point x="191" y="299"/>
      <point x="159" y="317"/>
      <point x="132" y="341" type="curve"/>
      <point x="150" y="389"/>
      <point x="182" y="425"/>
      <point x="222" y="425" type="curve" smooth="yes"/>
      <point x="265" y="425"/>
      <point x="291" y="396"/>
      <point x="291" y="359" type="curve" smooth="yes"/>
      <point x="291" y="322"/>
      <point x="261" y="299"/>
    </contour>
    <contour>
      <point x="687" y="297" type="curve" smooth="yes"/>
      <point x="687" y="416"/>
      <point x="640" y="521"/>
      <point x="582" y="578" type="curve" smooth="yes"/>
      <point x="546" y="615"/>
      <point x="504" y="634"/>
      <point x="455" y="634" type="curve" smooth="yes"/>
      <point x="379" y="634"/>
      <point x="342" y="575"/>
      <point x="342" y="527" type="curve" smooth="yes"/>
      <point x="342" y="475"/>
      <point x="380" y="423"/>
      <point x="453" y="423" type="curve" smooth="yes"/>
      <point x="503" y="423"/>
      <point x="547" y="447"/>
      <point x="586" y="499" type="curve"/>
      <point x="618" y="447"/>
      <point x="641" y="375"/>
      <point x="641" y="297" type="curve" smooth="yes"/>
      <point x="641" y="159"/>
      <point x="550" y="46"/>
      <point x="369" y="46" type="curve" smooth="yes"/>
      <point x="207" y="46"/>
      <point x="116" y="136"/>
      <point x="116" y="249" type="curve" smooth="yes"/>
      <point x="116" y="263"/>
      <point x="117" y="278"/>
      <point x="120" y="292" type="curve"/>
      <point x="151" y="268"/>
      <point x="187" y="253"/>
      <point x="224" y="253" type="curve" smooth="yes"/>
      <point x="289" y="253"/>
      <point x="337" y="296"/>
      <point x="337" y="359" type="curve" smooth="yes"/>
      <point x="337" y="420"/>
      <point x="295" y="471"/>
      <point x="222" y="471" type="curve" smooth="yes"/>
      <point x="142" y="471"/>
      <point x="70" y="370"/>
      <point x="70" y="249" type="curve" smooth="yes"/>
      <point x="70" y="116"/>
      <point x="171" y="0"/>
      <point x="369" y="0" type="curve" smooth="yes"/>
      <point x="584" y="0"/>
      <point x="687" y="135"/>
    </contour>
  </outline>
</glyph>
<glyph name="knMAc2.following" format="1">
  <advance width="449"/>
  <outline>
    <contour>
      <point x="430" y="-248" type="curve" smooth="yes"/>
      <point x="380" y="-248"/>
      <point x="359" y="-223"/>
      <point x="359" y="-191" type="curve" smooth="yes"/>
      <point x="359" y="-181"/>
      <point x="360" y="-171"/>
      <point x="362" y="-162" type="curve"/>
      <point x="376" y="-159"/>
      <point x="392" y="-158"/>
      <point x="408" y="-158" type="curve" smooth="yes"/>
      <point x="455" y="-158"/>
      <point x="495" y="-174"/>
      <point x="495" y="-204" type="curve" smooth="yes"/>
      <point x="495" y="-231"/>
      <point x="465" y="-248"/>
    </contour>
    <contour>
      <point x="422" y="-400" type="curve" smooth="yes"/>
      <point x="422" y="-387"/>
      <point x="414" y="-380"/>
      <point x="403" y="-379" type="curve" smooth="yes"/>
      <point x="294" y="-371"/>
      <point x="242" y="-328"/>
      <point x="242" y="-268" type="curve" smooth="yes"/>
      <point x="242" y="-228"/>
      <point x="270" y="-193"/>
      <point x="318" y="-174" type="curve"/>
      <point x="317" y="-179"/>
      <point x="317" y="-185"/>
      <point x="317" y="-191" type="curve" smooth="yes"/>
      <point x="317" y="-241"/>
      <point x="344" y="-290"/>
      <point x="430" y="-290" type="curve" smooth="yes"/>
      <point x="499" y="-290"/>
      <point x="537" y="-249"/>
      <point x="537" y="-204" type="curve" smooth="yes"/>
      <point x="537" y="-160"/>
      <point x="499" y="-116"/>
      <point x="408" y="-116" type="curve" smooth="yes"/>
      <point x="397" y="-116"/>
      <point x="386" y="-116"/>
      <point x="376" y="-117" type="curve"/>
      <point x="392" y="-76"/>
      <point x="414" y="-37"/>
      <point x="414" y="9" type="curve" smooth="yes"/>
      <point x="414" y="25"/>
      <point x="412" y="43"/>
      <point x="410" y="51" type="curve" smooth="yes"/>
      <point x="407" y="60"/>
      <point x="399" y="66"/>
      <point x="390" y="66" type="curve" smooth="yes"/>
      <point x="380" y="66"/>
      <point x="369" y="56"/>
      <point x="369" y="45" type="curve" smooth="yes"/>
      <point x="369" y="36"/>
      <point x="372" y="29"/>
      <point x="372" y="9" type="curve" smooth="yes"/>
      <point x="372" y="-39"/>
      <point x="347" y="-81"/>
      <point x="331" y="-125" type="curve"/>
      <point x="243" y="-147"/>
      <point x="200" y="-207"/>
      <point x="200" y="-268" type="curve" smooth="yes"/>
      <point x="200" y="-344"/>
      <point x="264" y="-419"/>
      <point x="402" y="-419" type="curve" smooth="yes"/>
      <point x="416" y="-419"/>
      <point x="422" y="-411"/>
    </contour>
  </outline>
</glyph>
<glyph name="knN" format="1">
  <advance width="920"/>
  <outline>
    <contour>
      <point x="770" y="269" type="curve" smooth="yes"/>
      <point x="732" y="269"/>
      <point x="699" y="300"/>
      <point x="699" y="345" type="curve" smooth="yes"/>
      <point x="699" y="365"/>
      <point x="702" y="387"/>
      <point x="712" y="410" type="curve"/>
      <point x="731" y="410" type="line" smooth="yes"/>
      <point x="799" y="410"/>
      <point x="833" y="372"/>
      <point x="833" y="333" type="curve" smooth="yes"/>
      <point x="833" y="293"/>
      <point x="808" y="269"/>
    </contour>
    <contour>
      <point x="138" y="13" type="curve" smooth="yes"/>
      <point x="138" y="81"/>
      <point x="147" y="136"/>
      <point x="172" y="162" type="curve" smooth="yes"/>
      <point x="183" y="173"/>
      <point x="199" y="182"/>
      <point x="220" y="182" type="curve" smooth="yes"/>
      <point x="253" y="182"/>
      <point x="288" y="161"/>
      <point x="318" y="110" type="curve" smooth="yes"/>
      <point x="361" y="39"/>
      <point x="396" y="0"/>
      <point x="463" y="0" type="curve" smooth="yes"/>
      <point x="523" y="0"/>
      <point x="597" y="45"/>
      <point x="597" y="168" type="curve" smooth="yes"/>
      <point x="597" y="254"/>
      <point x="543" y="342"/>
      <point x="461" y="410" type="curve"/>
      <point x="662" y="410" type="line"/>
      <point x="655" y="387"/>
      <point x="653" y="365"/>
      <point x="653" y="345" type="curve" smooth="yes"/>
      <point x="653" y="270"/>
      <point x="708" y="223"/>
      <point x="770" y="223" type="curve" smooth="yes"/>
      <point x="834" y="223"/>
      <point x="879" y="265"/>
      <point x="879" y="333" type="curve" smooth="yes"/>
      <point x="879" y="389"/>
      <point x="841" y="453"/>
      <point x="739" y="456" type="curve"/>
      <point x="760" y="482"/>
      <point x="791" y="508"/>
      <point x="835" y="532" type="curve" smooth="yes"/>
      <point x="843" y="536"/>
      <point x="847" y="544"/>
      <point x="847" y="552" type="curve" smooth="yes"/>
      <point x="847" y="566"/>
      <point x="835" y="575"/>
      <point x="824" y="575" type="curve" smooth="yes"/>
      <point x="820" y="575"/>
      <point x="816" y="574"/>
      <point x="813" y="572" type="curve" smooth="yes"/>
      <point x="746" y="536"/>
      <point x="706" y="495"/>
      <point x="682" y="456" type="curve"/>
      <point x="106" y="456" type="line" smooth="yes"/>
      <point x="94" y="456"/>
      <point x="83" y="445"/>
      <point x="83" y="433" type="curve" smooth="yes"/>
      <point x="83" y="421"/>
      <point x="94" y="410"/>
      <point x="106" y="410" type="curve" smooth="yes"/>
      <point x="382" y="410" type="line"/>
      <point x="478" y="349"/>
      <point x="551" y="259"/>
      <point x="551" y="168" type="curve" smooth="yes"/>
      <point x="551" y="87"/>
      <point x="507" y="46"/>
      <point x="463" y="46" type="curve" smooth="yes"/>
      <point x="412" y="46"/>
      <point x="389" y="83"/>
      <point x="358" y="134" type="curve" smooth="yes"/>
      <point x="314" y="205"/>
      <point x="265" y="228"/>
      <point x="220" y="228" type="curve" smooth="yes"/>
      <point x="185" y="228"/>
      <point x="159" y="213"/>
      <point x="140" y="194" type="curve" smooth="yes"/>
      <point x="109" y="164"/>
      <point x="92" y="99"/>
      <point x="92" y="13" type="curve" smooth="yes"/>
      <point x="92" y="1"/>
      <point x="103" y="-10"/>
      <point x="115" y="-10" type="curve" smooth="yes"/>
      <point x="127" y="-10"/>
      <point x="138" y="1"/>
    </contour>
  </outline>
</glyph>
<glyph name="knNAc2" format="1">
  <advance width="114"/>
  <outline>
    <contour>
      <point x="190" y="-347" type="curve" smooth="yes"/>
      <point x="201" y="-347"/>
      <point x="211" y="-338"/>
      <point x="211" y="-326" type="curve" smooth="yes"/>
      <point x="211" y="-321"/>
      <point x="209" y="-316"/>
      <point x="205" y="-311" type="curve" smooth="yes"/>
      <point x="169" y="-273"/>
      <point x="136" y="-243"/>
      <point x="104" y="-219" type="curve"/>
      <point x="111" y="-199"/>
      <point x="115" y="-178"/>
      <point x="115" y="-156" type="curve" smooth="yes"/>
      <point x="115" y="-92"/>
      <point x="102" y="-19"/>
      <point x="75" y="51" type="curve" smooth="yes"/>
      <point x="72" y="60"/>
      <point x="63" y="65"/>
      <point x="55" y="65" type="curve" smooth="yes"/>
      <point x="42" y="65"/>
      <point x="34" y="54"/>
      <point x="34" y="44" type="curve" smooth="yes"/>
      <point x="34" y="41"/>
      <point x="37" y="31"/>
      <point x="47" y="1" type="curve" smooth="yes"/>
      <point x="60" y="-37"/>
      <point x="73" y="-96"/>
      <point x="73" y="-156" type="curve" smooth="yes"/>
      <point x="73" y="-169"/>
      <point x="71" y="-181"/>
      <point x="68" y="-193" type="curve"/>
      <point x="10" y="-155"/>
      <point x="-42" y="-139"/>
      <point x="-92" y="-139" type="curve" smooth="yes"/>
      <point x="-193" y="-139"/>
      <point x="-231" y="-189"/>
      <point x="-231" y="-241" type="curve" smooth="yes"/>
      <point x="-231" y="-293"/>
      <point x="-188" y="-344"/>
      <point x="-90" y="-344" type="curve" smooth="yes"/>
      <point x="-11" y="-344"/>
      <point x="51" y="-309"/>
      <point x="85" y="-257" type="curve"/>
      <point x="113" y="-280"/>
      <point x="143" y="-307"/>
      <point x="175" y="-341" type="curve" smooth="yes"/>
      <point x="179" y="-345"/>
      <point x="184" y="-347"/>
    </contour>
    <contour>
      <point x="-90" y="-302" type="curve" smooth="yes"/>
      <point x="-148" y="-302"/>
      <point x="-189" y="-277"/>
      <point x="-189" y="-241" type="curve" smooth="yes"/>
      <point x="-189" y="-205"/>
      <point x="-151" y="-181"/>
      <point x="-92" y="-181" type="curve" smooth="yes"/>
      <point x="-47" y="-181"/>
      <point x="-1" y="-196"/>
      <point x="51" y="-232" type="curve"/>
      <point x="24" y="-274"/>
      <point x="-27" y="-302"/>
    </contour>
  </outline>
</glyph>
<glyph name="knNNU" format="1">
  <advance width="1075"/>
  <outline>
    <contour>
      <point x="552" y="41" type="curve" smooth="yes"/>
      <point x="513" y="41"/>
      <point x="481" y="68"/>
      <point x="481" y="107" type="curve" smooth="yes"/>
      <point x="481" y="143"/>
      <point x="510" y="176"/>
      <point x="557" y="176" type="curve" smooth="yes"/>
      <point x="600" y="176"/>
      <point x="628" y="156"/>
      <point x="652" y="130" type="curve"/>
      <point x="636" y="68"/>
      <point x="602" y="41"/>
    </contour>
    <contour>
      <point x="846" y="0" type="curve" smooth="yes"/>
      <point x="952" y="0"/>
      <point x="1008" y="69"/>
      <point x="1008" y="169" type="curve" smooth="yes"/>
      <point x="1008" y="255"/>
      <point x="960" y="357"/>
      <point x="896" y="427" type="curve" smooth="yes"/>
      <point x="892" y="432"/>
      <point x="886" y="435"/>
      <point x="879" y="435" type="curve" smooth="yes"/>
      <point x="866" y="435"/>
      <point x="856" y="425"/>
      <point x="856" y="412" type="curve" smooth="yes"/>
      <point x="856" y="407"/>
      <point x="858" y="401"/>
      <point x="862" y="397" type="curve" smooth="yes"/>
      <point x="918" y="335"/>
      <point x="962" y="245"/>
      <point x="962" y="169" type="curve" smooth="yes"/>
      <point x="962" y="97"/>
      <point x="924" y="46"/>
      <point x="846" y="46" type="curve" smooth="yes"/>
      <point x="786" y="46"/>
      <point x="744" y="75"/>
      <point x="702" y="139" type="curve"/>
      <point x="706" y="164"/>
      <point x="708" y="193"/>
      <point x="708" y="226" type="curve" smooth="yes"/>
      <point x="708" y="400"/>
      <point x="635" y="464"/>
      <point x="544" y="464" type="curve" smooth="yes"/>
      <point x="482" y="464"/>
      <point x="430" y="430"/>
      <point x="391" y="372" type="curve"/>
      <point x="353" y="430"/>
      <point x="301" y="464"/>
      <point x="230" y="464" type="curve" smooth="yes"/>
      <point x="140" y="464"/>
      <point x="91" y="402"/>
      <point x="91" y="336" type="curve" smooth="yes"/>
      <point x="91" y="294"/>
      <point x="112" y="254"/>
      <point x="149" y="229" type="curve"/>
      <point x="108" y="208"/>
      <point x="79" y="170"/>
      <point x="79" y="124" type="curve" smooth="yes"/>
      <point x="79" y="51"/>
      <point x="132" y="1"/>
      <point x="230" y="1" type="curve" smooth="yes"/>
      <point x="262" y="1"/>
      <point x="287" y="5"/>
      <point x="306" y="11" type="curve" smooth="yes"/>
      <point x="316" y="14"/>
      <point x="323" y="23"/>
      <point x="323" y="33" type="curve" smooth="yes"/>
      <point x="323" y="45"/>
      <point x="313" y="56"/>
      <point x="300" y="56" type="curve" smooth="yes"/>
      <point x="296" y="56"/>
      <point x="288" y="54"/>
      <point x="279" y="52" type="curve" smooth="yes"/>
      <point x="266" y="49"/>
      <point x="246" y="47"/>
      <point x="230" y="47" type="curve" smooth="yes"/>
      <point x="168" y="47"/>
      <point x="125" y="73"/>
      <point x="125" y="124" type="curve" smooth="yes"/>
      <point x="125" y="174"/>
      <point x="178" y="202"/>
      <point x="227" y="202" type="curve" smooth="yes"/>
      <point x="256" y="202" type="line" smooth="yes"/>
      <point x="268" y="202"/>
      <point x="279" y="213"/>
      <point x="279" y="225" type="curve" smooth="yes"/>
      <point x="279" y="237"/>
      <point x="268" y="248"/>
      <point x="256" y="248" type="curve" smooth="yes"/>
      <point x="246" y="248" type="line" smooth="yes"/>
      <point x="182" y="248"/>
      <point x="137" y="287"/>
      <point x="137" y="336" type="curve" smooth="yes"/>
      <point x="137" y="380"/>
      <point x="172" y="418"/>
      <point x="230" y="418" type="curve" smooth="yes"/>
      <point x="295" y="418"/>
      <point x="339" y="379"/>
      <point x="367" y="320" type="curve" smooth="yes"/>
      <point x="371" y="313"/>
      <point x="380" y="307"/>
      <point x="388" y="307" type="curve" smooth="yes"/>
      <point x="392" y="307" type="line" smooth="yes"/>
      <point x="400" y="307"/>
      <point x="408" y="312"/>
      <point x="412" y="319" type="curve" smooth="yes"/>
      <point x="443" y="378"/>
      <point x="488" y="418"/>
      <point x="544" y="418" type="curve" smooth="yes"/>
      <point x="617" y="418"/>
      <point x="662" y="352"/>
      <point x="662" y="226" type="curve" smooth="yes"/>
      <point x="662" y="211"/>
      <point x="662" y="198"/>
      <point x="661" y="185" type="curve"/>
      <point x="633" y="207"/>
      <point x="600" y="222"/>
      <point x="557" y="222" type="curve" smooth="yes"/>
      <point x="478" y="222"/>
      <point x="435" y="165"/>
      <point x="435" y="107" type="curve" smooth="yes"/>
      <point x="435" y="42"/>
      <point x="487" y="-5"/>
      <point x="552" y="-5" type="curve" smooth="yes"/>
      <point x="611" y="-5"/>
      <point x="660" y="15"/>
      <point x="686" y="81" type="curve"/>
      <point x="733" y="24"/>
      <point x="783" y="0"/>
    </contour>
  </outline>
</glyph>
<glyph name="knPHAc2" format="1">
  <advance width="119"/>
  <outline>
    <contour>
      <point x="32" y="-329" type="curve" smooth="yes"/>
      <point x="99" y="-329"/>
      <point x="138" y="-281"/>
      <point x="138" y="-209" type="curve" smooth="yes"/>
      <point x="138" y="-147"/>
      <point x="113" y="-52"/>
      <point x="75" y="51" type="curve" smooth="yes"/>
      <point x="72" y="60"/>
      <point x="63" y="65"/>
      <point x="55" y="65" type="curve" smooth="yes"/>
      <point x="42" y="65"/>
      <point x="34" y="54"/>
      <point x="34" y="44" type="curve" smooth="yes"/>
      <point x="34" y="41"/>
      <point x="35" y="37"/>
      <point x="42" y="17" type="curve" smooth="yes"/>
      <point x="71" y="-62"/>
      <point x="96" y="-151"/>
      <point x="96" y="-209" type="curve" smooth="yes"/>
      <point x="96" y="-253"/>
      <point x="75" y="-287"/>
      <point x="32" y="-287" type="curve" smooth="yes"/>
      <point x="0" y="-287"/>
      <point x="-30" y="-269"/>
      <point x="-61" y="-233" type="curve" smooth="yes"/>
      <point x="-65" y="-229"/>
      <point x="-71" y="-226"/>
      <point x="-77" y="-226" type="curve" smooth="yes"/>
      <point x="-77" y="-226"/>
      <point x="-79" y="-226"/>
      <point x="-79" y="-226" type="curve" smooth="yes"/>
      <point x="-85" y="-226"/>
      <point x="-92" y="-229"/>
      <point x="-96" y="-233" type="curve" smooth="yes"/>
      <point x="-124" y="-265"/>
      <point x="-153" y="-289"/>
      <point x="-191" y="-289" type="curve" smooth="yes"/>
      <point x="-225" y="-289"/>
      <point x="-246" y="-270"/>
      <point x="-246" y="-246" type="curve" smooth="yes"/>
      <point x="-246" y="-223"/>
      <point x="-231" y="-202"/>
      <point x="-206" y="-189" type="curve" smooth="yes"/>
      <point x="-199" y="-185"/>
      <point x="-195" y="-179"/>
      <point x="-195" y="-171" type="curve" smooth="yes"/>
      <point x="-195" y="-162"/>
      <point x="-204" y="-150"/>
      <point x="-216" y="-150" type="curve" smooth="yes"/>
      <point x="-219" y="-150"/>
      <point x="-223" y="-151"/>
      <point x="-226" y="-153" type="curve" smooth="yes"/>
      <point x="-267" y="-175"/>
      <point x="-288" y="-209"/>
      <point x="-288" y="-246" type="curve" smooth="yes"/>
      <point x="-288" y="-288"/>
      <point x="-259" y="-331"/>
      <point x="-191" y="-331" type="curve" smooth="yes"/>
      <point x="-147" y="-331"/>
      <point x="-112" y="-310"/>
      <point x="-78" y="-276" type="curve"/>
      <point x="-41" y="-313"/>
      <point x="-5" y="-329"/>
    </contour>
    <contour>
      <point x="-57" y="-368" type="line" smooth="yes"/>
      <point x="-57" y="-357"/>
      <point x="-67" y="-347"/>
      <point x="-78" y="-347" type="curve" smooth="yes"/>
      <point x="-89" y="-347"/>
      <point x="-99" y="-357"/>
      <point x="-99" y="-368" type="curve" smooth="yes"/>
      <point x="-99" y="-434" type="line" smooth="yes"/>
      <point x="-99" y="-445"/>
      <point x="-89" y="-455"/>
      <point x="-78" y="-455" type="curve" smooth="yes"/>
      <point x="-67" y="-455"/>
      <point x="-57" y="-445"/>
      <point x="-57" y="-434" type="curve" smooth="yes"/>
    </contour>
  </outline>
</glyph>
<glyph name="knRUU" format="1">
  <advance width="1230"/>
  <outline>
    <contour>
      <point x="1030" y="-4" type="curve" smooth="yes"/>
      <point x="1103" y="-4"/>
      <point x="1163" y="55"/>
      <point x="1163" y="167" type="curve" smooth="yes"/>
      <point x="1163" y="354"/>
      <point x="1024" y="456"/>
      <point x="914" y="456" type="curve" smooth="yes"/>
      <point x="805" y="456"/>
      <point x="749" y="366"/>
      <point x="749" y="288" type="curve" smooth="yes"/>
      <point x="749" y="228"/>
      <point x="774" y="178"/>
      <point x="774" y="125" type="curve" smooth="yes"/>
      <point x="774" y="78"/>
      <point x="749" y="46"/>
      <point x="696" y="46" type="curve" smooth="yes"/>
      <point x="651" y="46"/>
      <point x="608" y="76"/>
      <point x="564" y="141" type="curve" smooth="yes"/>
      <point x="560" y="147" type="line"/>
      <point x="568" y="170"/>
      <point x="572" y="196"/>
      <point x="572" y="223" type="curve" smooth="yes"/>
      <point x="572" y="297"/>
      <point x="537" y="367"/>
      <point x="479" y="410" type="curve"/>
      <point x="552" y="414"/>
      <point x="596" y="444"/>
      <point x="630" y="499" type="curve" smooth="yes"/>
      <point x="632" y="503"/>
      <point x="633" y="507"/>
      <point x="633" y="511" type="curve" smooth="yes"/>
      <point x="633" y="524"/>
      <point x="623" y="534"/>
      <point x="610" y="534" type="curve" smooth="yes"/>
      <point x="602" y="534"/>
      <point x="595" y="530"/>
      <point x="590" y="523" type="curve" smooth="yes"/>
      <point x="562" y="478"/>
      <point x="525" y="456"/>
      <point x="462" y="456" type="curve" smooth="yes"/>
      <point x="94" y="456" type="line" smooth="yes"/>
      <point x="82" y="456"/>
      <point x="71" y="445"/>
      <point x="71" y="433" type="curve" smooth="yes"/>
      <point x="71" y="421"/>
      <point x="82" y="410"/>
      <point x="94" y="410" type="curve" smooth="yes"/>
      <point x="197" y="410" type="line"/>
      <point x="138" y="367"/>
      <point x="100" y="297"/>
      <point x="100" y="223" type="curve" smooth="yes"/>
      <point x="100" y="93"/>
      <point x="193" y="-4"/>
      <point x="337" y="-4" type="curve" smooth="yes"/>
      <point x="430" y="-4"/>
      <point x="499" y="36"/>
      <point x="538" y="98" type="curve"/>
      <point x="587" y="31"/>
      <point x="641" y="0"/>
      <point x="696" y="0" type="curve" smooth="yes"/>
      <point x="779" y="0"/>
      <point x="820" y="50"/>
      <point x="820" y="125" type="curve" smooth="yes"/>
      <point x="820" y="178"/>
      <point x="795" y="228"/>
      <point x="795" y="288" type="curve" smooth="yes"/>
      <point x="795" y="344"/>
      <point x="835" y="410"/>
      <point x="914" y="410" type="curve" smooth="yes"/>
      <point x="994" y="410"/>
      <point x="1089" y="341"/>
      <point x="1112" y="221" type="curve"/>
      <point x="1092" y="226"/>
      <point x="1071" y="229"/>
      <point x="1051" y="229" type="curve" smooth="yes"/>
      <point x="960" y="229"/>
      <point x="918" y="171"/>
      <point x="918" y="106" type="curve" smooth="yes"/>
      <point x="918" y="48"/>
      <point x="959" y="-4"/>
    </contour>
    <contour>
      <point x="146" y="223" type="curve" smooth="yes"/>
      <point x="146" y="322"/>
      <point x="230" y="410"/>
      <point x="339" y="410" type="curve" smooth="yes"/>
      <point x="450" y="410"/>
      <point x="526" y="320"/>
      <point x="526" y="223" type="curve" smooth="yes"/>
      <point x="526" y="120"/>
      <point x="453" y="42"/>
      <point x="337" y="42" type="curve" smooth="yes"/>
      <point x="223" y="42"/>
      <point x="146" y="119"/>
    </contour>
    <contour>
      <point x="1030" y="42" type="curve" smooth="yes"/>
      <point x="989" y="42"/>
      <point x="964" y="72"/>
      <point x="964" y="106" type="curve" smooth="yes"/>
      <point x="964" y="149"/>
      <point x="994" y="183"/>
      <point x="1051" y="183" type="curve" smooth="yes"/>
      <point x="1074" y="183"/>
      <point x="1097" y="178"/>
      <point x="1117" y="172" type="curve"/>
      <point x="1117" y="167" type="line" smooth="yes"/>
      <point x="1117" y="93"/>
      <point x="1083" y="42"/>
    </contour>
  </outline>
</glyph>
<glyph name="knTTI" format="1">
  <advance width="765"/>
  <outline>
    <contour>
      <point x="547" y="469" type="curve" smooth="yes"/>
      <point x="513" y="469"/>
      <point x="485" y="492"/>
      <point x="485" y="526" type="curve" smooth="yes"/>
      <point x="485" y="560"/>
      <point x="512" y="588"/>
      <point x="553" y="588" type="curve" smooth="yes"/>
      <point x="594" y="588"/>
      <point x="626" y="559"/>
      <point x="641" y="521" type="curve"/>
      <point x="612" y="485"/>
      <point x="584" y="469"/>
    </contour>
    <contour>
      <point x="225" y="200" type="curve" smooth="yes"/>
      <point x="194" y="200"/>
      <point x="161" y="215"/>
      <point x="140" y="247" type="curve"/>
      <point x="156" y="284"/>
      <point x="185" y="312"/>
      <point x="223" y="312" type="curve" smooth="yes"/>
      <point x="258" y="312"/>
      <point x="287" y="290"/>
      <point x="287" y="256" type="curve" smooth="yes"/>
      <point x="287" y="222"/>
      <point x="263" y="200"/>
    </contour>
    <contour>
      <point x="692" y="137" type="curve" smooth="yes"/>
      <point x="692" y="182"/>
      <point x="679" y="215"/>
      <point x="646" y="248" type="curve" smooth="yes"/>
      <point x="633" y="261"/>
      <point x="613" y="274"/>
      <point x="591" y="285" type="curve"/>
      <point x="663" y="328"/>
      <point x="698" y="392"/>
      <point x="698" y="469" type="curve" smooth="yes"/>
      <point x="698" y="553"/>
      <point x="634" y="634"/>
      <point x="553" y="634" type="curve" smooth="yes"/>
      <point x="482" y="634"/>
      <point x="439" y="582"/>
      <point x="439" y="526" type="curve" smooth="yes"/>
      <point x="439" y="468"/>
      <point x="485" y="423"/>
      <point x="547" y="423" type="curve" smooth="yes"/>
      <point x="587" y="423"/>
      <point x="620" y="435"/>
      <point x="652" y="465" type="curve"/>
      <point x="650" y="392"/>
      <point x="607" y="335"/>
      <point x="525" y="302" type="curve"/>
      <point x="522" y="302" type="line" smooth="yes"/>
      <point x="510" y="302"/>
      <point x="499" y="291"/>
      <point x="499" y="279" type="curve" smooth="yes"/>
      <point x="499" y="267"/>
      <point x="510" y="256"/>
      <point x="522" y="256" type="curve" smooth="yes"/>
      <point x="552" y="256"/>
      <point x="594" y="235"/>
      <point x="614" y="216" type="curve" smooth="yes"/>
      <point x="637" y="193"/>
      <point x="646" y="168"/>
      <point x="646" y="137" type="curve" smooth="yes"/>
      <point x="646" y="82"/>
      <point x="611" y="46"/>
      <point x="553" y="46" type="curve" smooth="yes"/>
      <point x="489" y="46"/>
      <point x="446" y="81"/>
      <point x="413" y="136" type="curve" smooth="yes"/>
      <point x="409" y="142"/>
      <point x="400" y="147"/>
      <point x="393" y="147" type="curve" smooth="yes"/>
      <point x="388" y="147" type="line" smooth="yes"/>
      <point x="380" y="147"/>
      <point x="371" y="141"/>
      <point x="367" y="134" type="curve" smooth="yes"/>
      <point x="340" y="80"/>
      <point x="300" y="46"/>
      <point x="238" y="46" type="curve" smooth="yes"/>
      <point x="171" y="46"/>
      <point x="125" y="98"/>
      <point x="125" y="174" type="curve" smooth="yes"/>
      <point x="125" y="180"/>
      <point x="125" y="187"/>
      <point x="126" y="193" type="curve"/>
      <point x="155" y="166"/>
      <point x="190" y="154"/>
      <point x="225" y="154" type="curve" smooth="yes"/>
      <point x="293" y="154"/>
      <point x="333" y="196"/>
      <point x="333" y="256" type="curve" smooth="yes"/>
      <point x="333" y="314"/>
      <point x="288" y="358"/>
      <point x="223" y="358" type="curve" smooth="yes"/>
      <point x="217" y="358" type="line"/>
      <point x="182" y="367"/>
      <point x="171" y="391"/>
      <point x="171" y="410" type="curve" smooth="yes"/>
      <point x="171" y="433"/>
      <point x="187" y="457"/>
      <point x="231" y="466" type="curve" smooth="yes"/>
      <point x="242" y="468"/>
      <point x="249" y="479"/>
      <point x="249" y="490" type="curve" smooth="yes"/>
      <point x="249" y="503"/>
      <point x="239" y="511"/>
      <point x="226" y="511" type="curve" smooth="yes"/>
      <point x="166" y="511"/>
      <point x="125" y="457"/>
      <point x="125" y="411" type="curve" smooth="yes"/>
      <point x="125" y="387"/>
      <point x="131" y="359"/>
      <point x="157" y="337" type="curve"/>
      <point x="111" y="306"/>
      <point x="79" y="244"/>
      <point x="79" y="174" type="curve" smooth="yes"/>
      <point x="79" y="68"/>
      <point x="147" y="0"/>
      <point x="238" y="0" type="curve" smooth="yes"/>
      <point x="306" y="0"/>
      <point x="356" y="31"/>
      <point x="392" y="84" type="curve"/>
      <point x="432" y="30"/>
      <point x="482" y="0"/>
      <point x="553" y="0" type="curve" smooth="yes"/>
      <point x="641" y="0"/>
      <point x="692" y="54"/>
    </contour>
  </outline>
</glyph>
<glyph name="knVI" format="1">
  <advance width="726"/>
  <outline>
    <contour>
      <point x="341" y="469" type="curve" smooth="yes"/>
      <point x="300" y="469"/>
      <point x="276" y="497"/>
      <point x="276" y="527" type="curve" smooth="yes"/>
      <point x="276" y="555"/>
      <point x="299" y="588"/>
      <point x="343" y="588" type="curve" smooth="yes"/>
      <point x="376" y="588"/>
      <point x="404" y="575"/>
      <point x="445" y="538" type="curve"/>
      <point x="415" y="493"/>
      <point x="382" y="469"/>
    </contour>
    <contour>
      <point x="518" y="0" type="curve" smooth="yes"/>
      <point x="594" y="0"/>
      <point x="661" y="46"/>
      <point x="661" y="178" type="curve" smooth="yes"/>
      <point x="661" y="298"/>
      <point x="597" y="452"/>
      <point x="497" y="551" type="curve" smooth="yes"/>
      <point x="431" y="617"/>
      <point x="391" y="634"/>
      <point x="343" y="634" type="curve" smooth="yes"/>
      <point x="267" y="634"/>
      <point x="230" y="575"/>
      <point x="230" y="527" type="curve" smooth="yes"/>
      <point x="230" y="475"/>
      <point x="268" y="423"/>
      <point x="341" y="423" type="curve" smooth="yes"/>
      <point x="393" y="423"/>
      <point x="438" y="449"/>
      <point x="478" y="505" type="curve"/>
      <point x="561" y="414"/>
      <point x="615" y="282"/>
      <point x="615" y="178" type="curve" smooth="yes"/>
      <point x="615" y="88"/>
      <point x="574" y="46"/>
      <point x="518" y="46" type="curve" smooth="yes"/>
      <point x="458" y="46"/>
      <point x="421" y="80"/>
      <point x="385" y="136" type="curve" smooth="yes"/>
      <point x="381" y="142"/>
      <point x="373" y="147"/>
      <point x="366" y="147" type="curve" smooth="yes"/>
      <point x="361" y="147" type="line" smooth="yes"/>
      <point x="353" y="147"/>
      <point x="345" y="142"/>
      <point x="341" y="135" type="curve" smooth="yes"/>
      <point x="310" y="75"/>
      <point x="271" y="46"/>
      <point x="204" y="46" type="curve" smooth="yes"/>
      <point x="152" y="46"/>
      <point x="116" y="76"/>
      <point x="116" y="118" type="curve" smooth="yes"/>
      <point x="116" y="156"/>
      <point x="145" y="186"/>
      <point x="192" y="193" type="curve" smooth="yes"/>
      <point x="204" y="195"/>
      <point x="212" y="205"/>
      <point x="212" y="216" type="curve" smooth="yes"/>
      <point x="212" y="228"/>
      <point x="203" y="238"/>
      <point x="190" y="238" type="curve" smooth="yes"/>
      <point x="128" y="238"/>
      <point x="70" y="186"/>
      <point x="70" y="118" type="curve" smooth="yes"/>
      <point x="70" y="54"/>
      <point x="120" y="0"/>
      <point x="204" y="0" type="curve" smooth="yes"/>
      <point x="278" y="0"/>
      <point x="326" y="27"/>
      <point x="365" y="86" type="curve"/>
      <point x="407" y="29"/>
      <point x="452" y="0"/>
    </contour>
  </outline>
</glyph>
<glyph name="knYE" format="1">
  <advance width="1220"/>
  <outline>
    <contour>
      <point x="704" y="508" type="curve" smooth="yes"/>
      <point x="704" y="553"/>
      <point x="732" y="589"/>
      <point x="775" y="589" type="curve" smooth="yes"/>
      <point x="811" y="589"/>
      <point x="838" y="566"/>
      <point x="838" y="532" type="curve" smooth="yes"/>
      <point x="838" y="487"/>
      <point x="800" y="456"/>
      <point x="711" y="456" type="curve"/>
      <point x="708" y="470"/>
      <point x="704" y="489"/>
    </contour>
    <contour>
      <point x="113" y="223" type="curve" smooth="yes"/>
      <point x="113" y="317"/>
      <point x="193" y="410"/>
      <point x="301" y="410" type="curve" smooth="yes"/>
      <point x="411" y="410"/>
      <point x="489" y="315"/>
      <point x="489" y="223" type="curve" smooth="yes"/>
      <point x="489" y="121"/>
      <point x="415" y="42"/>
      <point x="301" y="42" type="curve" smooth="yes"/>
      <point x="185" y="42"/>
      <point x="113" y="119"/>
    </contour>
    <contour>
      <point x="680" y="0" type="curve" smooth="yes"/>
      <point x="754" y="0"/>
      <point x="803" y="33"/>
      <point x="827" y="87" type="curve"/>
      <point x="877" y="22"/>
      <point x="930" y="0"/>
      <point x="991" y="0" type="curve" smooth="yes"/>
      <point x="1097" y="0"/>
      <point x="1153" y="69"/>
      <point x="1153" y="169" type="curve" smooth="yes"/>
      <point x="1153" y="255"/>
      <point x="1105" y="357"/>
      <point x="1041" y="427" type="curve" smooth="yes"/>
      <point x="1037" y="432"/>
      <point x="1031" y="435"/>
      <point x="1024" y="435" type="curve" smooth="yes"/>
      <point x="1011" y="435"/>
      <point x="1001" y="425"/>
      <point x="1001" y="412" type="curve" smooth="yes"/>
      <point x="1001" y="407"/>
      <point x="1003" y="401"/>
      <point x="1007" y="397" type="curve" smooth="yes"/>
      <point x="1063" y="335"/>
      <point x="1107" y="245"/>
      <point x="1107" y="169" type="curve" smooth="yes"/>
      <point x="1107" y="97"/>
      <point x="1069" y="46"/>
      <point x="991" y="46" type="curve" smooth="yes"/>
      <point x="936" y="46"/>
      <point x="892" y="70"/>
      <point x="841" y="146" type="curve"/>
      <point x="842" y="154"/>
      <point x="842" y="161"/>
      <point x="842" y="169" type="curve" smooth="yes"/>
      <point x="842" y="249"/>
      <point x="801" y="342"/>
      <point x="744" y="411" type="curve"/>
      <point x="856" y="420"/>
      <point x="884" y="476"/>
      <point x="884" y="532" type="curve" smooth="yes"/>
      <point x="884" y="590"/>
      <point x="841" y="635"/>
      <point x="775" y="635" type="curve" smooth="yes"/>
      <point x="708" y="635"/>
      <point x="658" y="583"/>
      <point x="658" y="508" type="curve" smooth="yes"/>
      <point x="658" y="490"/>
      <point x="661" y="471"/>
      <point x="664" y="456" type="curve"/>
      <point x="589" y="456" type="line" smooth="yes"/>
      <point x="577" y="456"/>
      <point x="566" y="445"/>
      <point x="566" y="433" type="curve" smooth="yes"/>
      <point x="566" y="421"/>
      <point x="577" y="410"/>
      <point x="589" y="410" type="curve" smooth="yes"/>
      <point x="690" y="410" type="line"/>
      <point x="691" y="405"/>
      <point x="693" y="400"/>
      <point x="696" y="397" type="curve"/>
      <point x="752" y="335"/>
      <point x="796" y="245"/>
      <point x="796" y="169" type="curve" smooth="yes"/>
      <point x="796" y="97"/>
      <point x="758" y="46"/>
      <point x="680" y="46" type="curve" smooth="yes"/>
      <point x="622" y="46"/>
      <point x="573" y="76"/>
      <point x="526" y="154" type="curve"/>
      <point x="532" y="176"/>
      <point x="535" y="199"/>
      <point x="535" y="223" type="curve" smooth="yes"/>
      <point x="535" y="337"/>
      <point x="437" y="456"/>
      <point x="301" y="456" type="curve" smooth="yes"/>
      <point x="167" y="456"/>
      <point x="67" y="339"/>
      <point x="67" y="223" type="curve" smooth="yes"/>
      <point x="67" y="93"/>
      <point x="155" y="-4"/>
      <point x="301" y="-4" type="curve" smooth="yes"/>
      <point x="395" y="-4"/>
      <point x="466" y="38"/>
      <point x="504" y="103" type="curve"/>
      <point x="558" y="26"/>
      <point x="614" y="0"/>
    </contour>
  </outline>
</glyph>
<glyph name="macroncmb.cap" format="1">
  <advance width="0"/>
  <outline>
    <contour>
      <point x="110" y="664" type="line" smooth="yes"/>
      <point x="122" y="664"/>
      <point x="132" y="674"/>
      <point x="132" y="686" type="curve" smooth="yes"/>
      <point x="132" y="698"/>
      <point x="122" y="708"/>
      <point x="110" y="708" type="curve" smooth="yes"/>
      <point x="-119" y="708" type="line" smooth="yes"/>
      <point x="-131" y="708"/>
      <point x="-141" y="698"/>
      <point x="-141" y="686" type="curve" smooth="yes"/>
      <point x="-141" y="674"/>
      <point x="-131" y="664"/>
      <point x="-119" y="664" type="curve" smooth="yes"/>
    </contour>
  </outline>
</glyph>
